<svg width="132" height="40" viewBox="0 0 132 40" fill="none" xmlns="http://www.w3.org/2000/svg">
<mask id="mask0" mask-type="alpha" maskUnits="userSpaceOnUse" x="0" y="0" width="132" height="40">
<path d="M60.6306 37.0837C60.5308 37.2356 60.4059 37.3623 60.3061 37.5143C59.4823 38.6289 58.4588 39.4142 57.0858 39.6422C54.6893 40.0728 52.842 38.8569 52.3178 36.5264C51.4441 32.7012 53.4661 27.7108 58.5087 26.6722C60.4309 26.2669 62.3281 26.4696 64.2004 27.0522C64.3751 27.1029 64.8244 27.3308 64.8993 27.3815C64.7995 28.0908 64.6996 28.8254 64.5998 29.5347C64.3501 31.308 64.0755 33.0812 63.8259 34.8798C63.776 35.3104 63.776 35.7664 63.8509 36.197C63.9757 36.881 64.45 37.185 65.124 37.033C65.6233 36.9317 66.0726 36.6783 66.4221 36.3237C66.8964 35.8677 67.2209 35.3357 67.4456 34.7531C67.9948 33.3852 68.1446 31.9413 68.0697 30.4973C68.0198 29.3827 67.7951 28.3188 67.3208 27.3055C66.3223 25.127 64.6247 23.7337 62.3531 23.1511C59.0579 22.2898 55.9874 22.8217 53.2664 24.9496C51.1445 26.6215 49.9713 28.8761 49.4969 31.5106C49.1475 33.4865 49.1724 35.4371 49.7715 37.3623C49.9463 37.9449 50.2209 38.5022 50.4705 39.0849C50.5204 39.2115 50.5953 39.3382 50.6702 39.4902C50.4955 39.4902 50.3707 39.4902 50.2708 39.4902C49.447 39.4902 48.6482 39.4902 47.8244 39.4902C47.4999 39.4902 47.3501 39.3635 47.2253 39.0849C46.751 37.9196 46.4514 36.6783 46.3765 35.4371C46.1519 32.1186 46.8508 29.0281 48.6981 26.2669C50.7701 23.1764 53.6159 21.3018 57.2356 20.5925C59.707 20.1112 62.1284 20.2125 64.475 21.1752C68.1695 22.6951 70.3414 25.4816 70.8905 29.5094C71.1901 31.6879 70.9155 33.8158 69.9669 35.7917C69.1681 37.489 67.9199 38.7302 66.1475 39.3382C65.149 39.6929 64.1005 39.7942 63.0521 39.5915C61.9537 39.3635 61.2547 38.6796 60.9052 37.6156C60.8553 37.413 60.8054 37.2356 60.7305 37.033C60.7055 37.0837 60.6556 37.0837 60.6306 37.0837ZM60.7055 29.788C60.5308 29.7374 60.381 29.6867 60.2562 29.6867C59.1578 29.5601 58.2591 29.94 57.5102 30.7507C56.7862 31.5359 56.4118 32.4732 56.262 33.5372C56.1622 34.1705 56.1622 34.8038 56.3619 35.4117C56.6365 36.2477 57.4103 36.6277 58.2341 36.349C58.6585 36.197 58.983 35.9184 59.2826 35.5637C59.7319 35.0064 60.0065 34.3731 60.1563 33.6892C60.2562 33.1572 60.331 32.6252 60.4059 32.0933C60.5058 31.308 60.6056 30.5733 60.7055 29.788Z" fill="black"/>
<path d="M118.993 36.9818C119.068 36.7792 119.168 36.6019 119.243 36.3992C120.391 33.638 121.539 30.8515 122.688 28.0903C123.062 27.1784 123.736 26.7477 124.685 26.6971C124.984 26.6717 125.284 26.6717 125.583 26.7224C126.382 26.849 126.956 27.305 127.256 28.0903C127.88 29.6102 128.504 31.1302 129.153 32.6754C130.027 34.8033 130.901 36.9312 131.774 39.0591C131.849 39.2364 131.924 39.4137 131.999 39.6417C130.751 39.6417 129.553 39.6417 128.354 39.6417C127.231 36.7792 126.133 33.942 125.034 31.0795C124.984 31.0795 124.959 31.0795 124.934 31.0795C124.86 31.2315 124.785 31.3581 124.735 31.5101C123.861 33.7647 122.987 36.0192 122.114 38.2484C121.964 38.6284 121.564 39.6417 121.564 39.6417C121.539 39.6417 121.415 39.6417 121.315 39.6417C119.667 39.6417 118.045 39.6417 116.397 39.6417C116.372 39.6417 116.372 39.6417 116.322 39.6417C116.272 39.5404 116.197 39.363 116.122 39.2111C115.848 38.5271 115.548 37.8685 115.324 37.1845C115.199 36.8552 115.024 36.7539 114.699 36.7792C113.476 36.8045 112.253 36.7792 111.03 36.7792C110.556 36.7792 110.556 36.7792 110.381 37.2098C110.131 37.8431 109.882 38.4764 109.632 39.1097C109.557 39.2871 109.482 39.4644 109.407 39.6417C108.209 39.6417 107.061 39.6417 105.812 39.6417C105.887 39.439 105.937 39.2871 105.987 39.1351C107.26 36.0446 108.534 32.9794 109.782 29.8889C110.006 29.3569 110.206 28.8249 110.431 28.293C110.88 27.2037 111.654 26.6464 112.827 26.6717C114.075 26.6971 114.799 27.153 115.299 28.3436C116.422 31.0542 117.52 33.7393 118.644 36.4499C118.719 36.6272 118.793 36.8045 118.868 36.9818C118.918 36.9818 118.943 36.9818 118.993 36.9818ZM114.05 33.8153C113.676 32.8021 113.326 31.8648 112.852 30.9275C112.378 31.8648 112.003 32.8021 111.654 33.8153C112.503 33.8153 113.227 33.8153 114.05 33.8153Z" fill="black"/>
<path d="M28.7747 12.8663C28.7248 13.0182 28.6998 13.1196 28.6748 13.1956C28.4002 14.0822 28.55 14.9181 29.0992 15.6274C30.0228 16.8687 31.271 17.6287 32.7938 17.8313C34.2666 18.034 35.6146 17.654 36.8878 16.9194C37.412 16.6154 37.8863 16.2101 38.3856 15.8554C38.5104 15.7541 38.6352 15.6528 38.76 15.5514C39.484 17.426 39.434 22.9484 38.6851 24.595C38.5853 24.4683 38.5104 24.367 38.4355 24.2403C37.1124 22.4164 35.4649 20.9725 33.5177 19.8579C32.0449 19.0219 30.4472 18.566 28.7497 18.6673C28.5999 18.6673 28.4502 18.6673 28.3253 18.6926C27.876 18.8446 27.5265 18.6926 27.1521 18.414C25.9788 17.578 24.8804 16.6661 23.9068 15.6021C23.2328 14.8421 22.6587 14.0062 22.2592 13.0689C21.5603 11.473 21.4355 9.85175 22.0845 8.2305C23.2079 5.34265 25.13 3.13877 27.9759 1.92283C31.1212 0.580239 34.017 1.23887 36.5133 3.59475C37.2622 4.30404 37.8613 5.14 38.2857 6.10261C39.0845 7.95185 39.0097 9.75042 38.0361 11.5237C37.3121 12.8156 36.2886 13.8035 35.0155 14.5128C34.4164 14.8675 33.7673 15.0701 33.0434 15.0448C32.669 15.0195 32.3444 14.9181 32.0698 14.6395C31.8452 14.4115 31.7952 14.2088 31.9949 13.9555C32.2695 13.6262 32.5941 13.2969 32.9436 13.0436C34.3914 11.929 35.8393 10.865 37.2872 9.77575C37.7864 9.39577 37.8364 9.34511 37.5618 8.7878C36.5632 6.71058 35.1403 5.03867 32.9935 4.12672C29.7233 2.73346 26.2534 4.30404 24.6058 6.83724C22.9333 9.44643 24.5559 11.929 26.8275 12.6383C27.2769 12.7649 27.7512 12.7903 28.2255 12.8409C28.3753 12.8916 28.55 12.8663 28.7747 12.8663Z" fill="black"/>
<path d="M10.5033 27.0772C10.5283 26.9758 10.5283 26.9252 10.5533 26.8492C10.9277 25.8359 10.728 24.9239 10.054 24.1133C8.70597 22.4921 6.9835 21.8081 4.91154 22.0868C3.36381 22.2894 2.06572 23.0241 0.89244 24.0373C0.767623 24.1387 0.66777 24.24 0.542953 24.3413C-0.180984 23.1 -0.180984 17.7043 0.542953 15.2725C0.642806 15.4245 0.74266 15.5258 0.842513 15.6524C2.16557 17.451 3.78819 18.8949 5.71037 20.0095C7.4578 20.9975 9.35502 21.4535 11.3521 21.1495C11.4769 21.1242 11.6267 21.1748 11.7515 21.2508C13.2743 22.2641 14.6722 23.404 15.7956 24.848C16.2948 25.4813 16.6942 26.1399 17.0188 26.8745C17.6928 28.4451 17.7926 30.041 17.1935 31.6116C16.0702 34.5248 14.123 36.754 11.2772 37.9699C6.9835 39.8192 2.66484 37.5393 0.942367 33.7395C0.51799 32.8529 0.368209 31.8902 0.4431 30.9023C0.493026 30.1677 0.66777 29.4837 0.992293 28.8504C1.76616 27.2798 2.93944 26.0892 4.4622 25.2786C5.08628 24.9493 5.73533 24.772 6.45927 24.8986C6.55912 24.924 6.68394 24.9493 6.78379 24.9999C7.48277 25.2786 7.55766 25.6839 7.05839 26.2159C6.80875 26.4692 6.53416 26.7225 6.2346 26.9252C4.78672 28.0145 3.33885 29.1037 1.89097 30.193C1.51652 30.4717 1.4666 30.5477 1.64134 30.953C2.81462 33.5115 4.56205 35.4114 7.35795 36.1207C8.45634 36.3993 9.55472 36.3487 10.6531 36.0194C12.0511 35.614 13.2243 34.8034 14.1979 33.6888C14.5724 33.2582 14.8719 32.7769 15.0716 32.2196C15.5709 30.8263 15.3462 29.585 14.3727 28.4958C13.474 27.5078 12.3506 27.0265 11.0276 27.0518C10.8778 27.0772 10.703 27.0772 10.5033 27.0772Z" fill="black"/>
<path d="M23.9082 39.5147C20.9625 40.1733 18.0917 40.1733 15.1211 39.4387C15.3208 39.2867 15.4456 39.1854 15.5704 39.0841C17.5425 37.5135 19.1402 35.6136 20.1637 33.2577C20.8377 31.7378 21.0624 30.1165 20.8377 28.4446C20.8127 28.2926 20.8627 28.1153 20.9376 28.014C21.986 26.3674 23.1843 24.8475 24.757 23.6569C25.8054 22.8462 26.9787 22.2889 28.3017 22.137C29.3003 22.0103 30.2739 22.137 31.1975 22.5423C34.0932 23.8089 36.315 25.8354 37.4134 28.9006C38.9861 33.3084 36.5646 37.4628 33.0198 39.0587C31.2974 39.844 29.5749 39.692 27.9273 38.7294C26.6542 37.9948 25.6806 36.9562 25.0066 35.6389C24.7819 35.2083 24.6321 34.7016 24.5073 34.195C24.4075 33.739 24.4824 33.283 24.732 32.8524C24.9816 32.4217 25.2562 32.3711 25.6057 32.7004C25.9053 32.979 26.1799 33.283 26.4295 33.6123C27.5279 35.0816 28.5763 36.5762 29.6747 38.0708C29.9743 38.4761 30.0492 38.5268 30.4486 38.3241C32.8451 37.1842 34.7173 35.4869 35.4413 32.8271C36.1652 30.1672 35.3913 27.8367 33.5441 25.8608C32.87 25.1515 32.0712 24.6195 31.1226 24.3915C30.149 24.1635 29.2504 24.3662 28.4515 24.9488C27.2783 25.8101 26.6542 27.0007 26.6042 28.47C26.6042 28.6979 26.6042 28.9513 26.6042 29.2046C26.4545 29.1792 26.3546 29.1792 26.2548 29.1286C25.406 28.8499 24.6321 29.0273 23.9332 29.5339C22.685 30.4712 21.9361 31.7378 21.7114 33.3337C21.4618 35.0563 21.986 36.6015 22.8847 38.0454C23.1593 38.5521 23.5337 38.9827 23.9082 39.5147Z" fill="black"/>
<path d="M12.7242 10.738C12.9988 10.7887 13.2235 10.8647 13.4482 10.89C14.2221 10.9913 14.946 10.7887 15.5451 10.282C16.968 9.06609 17.7169 7.4955 17.642 5.5956C17.5921 3.82237 16.8182 2.30245 15.7448 0.959852C15.62 0.80786 15.5201 0.6812 15.3454 0.478544C18.316 -0.180087 21.1868 -0.154755 24.1824 0.529208C23.9827 0.6812 23.8579 0.782528 23.7581 0.883856C21.7859 2.45444 20.2133 4.32901 19.1648 6.65955C18.4908 8.17947 18.2162 9.80071 18.4409 11.4473C18.4658 11.7006 18.4409 11.8779 18.2911 12.0806C17.4923 13.2965 16.5936 14.4618 15.5451 15.4751C14.7962 16.1844 13.9724 16.7923 13.0488 17.2483C11.4012 18.0336 9.70368 18.1603 8.0561 17.451C5.28517 16.2604 3.13832 14.3098 1.99 11.4473C0.267533 7.14086 2.43934 2.75842 6.18385 1.01052C8.10603 0.123897 10.0032 0.351885 11.7507 1.54249C12.7492 2.22645 13.548 3.11307 14.1721 4.17701C14.4966 4.73432 14.7213 5.31695 14.7962 5.97558C14.8461 6.43156 14.7712 6.8622 14.5216 7.24218C14.272 7.59683 14.0473 7.6475 13.7477 7.36884C13.4232 7.09019 13.1486 6.76088 12.899 6.43156C11.8006 4.96231 10.7521 3.46772 9.65376 1.97313C9.3542 1.56782 9.25434 1.51716 8.82997 1.71981C6.40852 2.88508 4.56123 4.60766 3.83729 7.34351C3.0135 10.434 4.58619 13.6005 6.8329 15.0444C9.45405 16.767 11.9005 14.9684 12.5495 12.7392C12.6743 12.3086 12.6993 11.8273 12.7492 11.3713C12.7492 11.118 12.7242 10.9407 12.7242 10.738Z" fill="black"/>
<path d="M99.5973 35.5637C99.5973 36.9316 99.5973 38.2489 99.5973 39.6421C98.449 39.6421 97.3007 39.6421 96.1523 39.6421C96.1523 39.4395 96.1523 32.4479 96.1523 29.0787C96.1523 27.7614 96.9262 26.8242 98.3491 26.7988C100.346 26.7988 102.293 26.7988 104.265 26.7988C105.164 26.7988 106.013 27.0775 106.662 27.7614C107.061 28.1921 107.311 28.6987 107.436 29.2814C107.71 30.5986 107.735 31.9159 107.411 33.2078C107.036 34.6517 105.988 35.5384 104.515 35.589C103.017 35.5637 100.671 35.5637 99.5973 35.5637ZM99.6223 32.4732C99.8469 32.4732 103.192 32.4732 103.292 32.4732C103.741 32.4732 104.041 32.1439 104.041 31.8146C104.066 31.4092 104.041 30.8519 104.041 30.4973C104.041 30.1427 103.766 29.8387 103.292 29.8387C103.192 29.8387 99.822 29.8387 99.6223 29.8387C99.6223 30.7253 99.6223 31.5359 99.6223 32.4732Z" fill="black"/>
<path d="M85.1924 36.653C85.1924 37.6916 85.1924 38.6543 85.1924 39.6422C84.1689 39.6422 79.8752 39.6422 77.2541 39.6422C76.7548 39.6422 76.2306 39.5662 75.7313 39.4142C73.9589 38.8822 72.9854 37.6156 72.5859 35.8424C72.4611 35.2851 72.4112 34.7025 72.3862 34.1452C72.3363 33.0559 72.3363 31.9413 72.561 30.852C73.0103 28.5468 74.5331 27.1282 76.8297 26.9002C77.304 26.8495 77.7534 26.8242 78.2277 26.8242C79.6256 26.8242 82.746 26.8242 82.9707 26.8242C82.9707 27.8375 82.9707 28.8254 82.9707 29.8387C82.746 29.8387 80.1249 29.8641 79.0015 29.8894C78.5522 29.8894 78.1278 29.9147 77.6785 29.9654C76.8796 30.0414 76.3055 30.472 76.0808 31.2826C75.8312 32.1693 75.7813 33.1066 75.8312 34.0185C75.8561 34.3985 75.9061 34.7785 75.981 35.1584C76.1557 36.0451 76.63 36.4757 77.5037 36.6024C77.9281 36.653 78.3774 36.7037 78.8018 36.7037C80.749 36.653 84.9428 36.653 85.1924 36.653Z" fill="black"/>
<path d="M95.006 26.7734C95.006 27.2041 95.006 29.3066 95.006 29.8133C94.8312 29.8133 94.6814 29.8133 94.4817 29.8133C93.608 29.8133 92.7593 29.8133 91.9105 29.8133C91.7358 29.8133 91.561 29.8133 91.3114 29.8133C91.3114 33.0811 91.3114 36.3743 91.3114 39.6168C90.1631 39.6168 89.0397 39.6168 87.8914 39.6168C87.8914 36.3743 87.8914 33.0811 87.8914 29.8133C86.6183 29.8133 85.3951 29.8133 84.1719 29.8133C84.1719 29.3826 84.1719 27.4321 84.1719 26.7734C87.7916 26.7734 91.4113 26.7734 95.006 26.7734Z" fill="black"/>
<path d="M19.7396 15.0195C20.9878 17.0714 22.6354 18.642 24.5076 20.0606C22.5106 21.3272 20.9628 22.9991 19.5649 24.9243C18.3167 22.8724 16.6941 21.3019 14.7969 19.8833C16.7939 18.642 18.3417 16.9701 19.7396 15.0195Z" fill="black"/>
<path d="M33.0949 8.15421C32.346 8.73684 31.622 9.29415 30.8731 9.82612C30.4987 10.1048 30.0494 10.3074 29.575 10.3581C29.2505 10.3834 28.901 10.3834 28.6015 10.2821C28.0772 10.1048 27.9025 9.5728 28.1272 9.09149C28.1771 8.99016 28.227 8.88883 28.3019 8.81284C29.1257 7.82489 30.1242 7.21692 31.4223 7.26759C32.0963 7.26759 32.6455 7.54624 33.0949 8.15421Z" fill="black"/>
<path d="M6.21094 31.7884C6.9848 31.2058 7.7337 30.6232 8.50757 30.0659C9.05676 29.6859 9.68084 29.4832 10.3798 29.5845C10.5795 29.6099 10.8042 29.7112 10.9789 29.8379C11.2785 30.0659 11.3534 30.4205 11.2036 30.7751C11.1786 30.8258 11.1537 30.9018 11.1287 30.9525C10.5046 32.1177 8.73224 32.9284 7.45911 32.6244C6.95984 32.5231 6.53546 32.2697 6.21094 31.7884Z" fill="black"/>
<path d="M31.271 33.6128C31.1712 33.5115 31.0963 33.4355 31.0214 33.3342C30.622 32.8022 30.1976 32.2449 29.7982 31.6876C29.4487 31.2063 29.1741 30.649 29.0992 30.041C29.0742 29.737 29.0992 29.4077 29.1741 29.1037C29.3239 28.5971 29.8481 28.4198 30.3224 28.6731C30.8217 28.9517 31.1712 29.357 31.4707 29.8383C31.945 30.6236 32.2196 31.4849 31.995 32.4222C31.9201 32.9035 31.6954 33.3088 31.271 33.6128Z" fill="black"/>
<path d="M8.03362 6.35547C8.08354 6.43146 8.15843 6.48213 8.20836 6.55812C8.63274 7.14076 9.08208 7.7234 9.50645 8.30603C9.8809 8.81267 10.1305 9.36997 10.1805 10.0033C10.2054 10.2313 10.1805 10.4592 10.1305 10.6619C10.0057 11.2699 9.43156 11.5232 8.90733 11.2192C8.35814 10.9152 7.98369 10.4339 7.68413 9.87661C7.25975 9.11665 7.06004 8.2807 7.28471 7.39408C7.40953 6.96344 7.6342 6.63412 8.03362 6.35547Z" fill="black"/>
</mask>
<g mask="url(#mask0)">
<rect width="132" height="40" fill="white"/>
</g>
</svg>
