<svg width="106" height="106" viewBox="0 0 106 106" fill="none" xmlns="http://www.w3.org/2000/svg">
<circle opacity="0.2" cx="53" cy="53" r="50" stroke="white"/>
<circle cx="53" cy="3" r="3" fill="white"/>
<circle cx="103" cy="53" r="3" transform="rotate(90 103 53)" fill="white"/>
<circle cx="53" cy="103" r="3" fill="white"/>
<circle cx="3" cy="53" r="3" transform="rotate(90 3 53)" fill="white"/>
<path d="M47.75 51.2141V57.375C47.75 57.6071 47.8422 57.8296 48.0063 57.9937C48.1704 58.1578 48.3929 58.25 48.625 58.25H57.375C57.6071 58.25 57.8296 58.1578 57.9937 57.9937C58.1578 57.8296 58.25 57.6071 58.25 57.375V48.625C58.25 48.3929 58.1578 48.1704 57.9937 48.0063C57.8296 47.8422 57.6071 47.75 57.375 47.75H51.257C51.0278 47.7503 50.8079 47.8404 50.6445 48.0011L48.0125 50.5903C47.9295 50.6716 47.8636 50.7687 47.8185 50.8758C47.7734 50.9829 47.7501 51.0979 47.75 51.2141ZM49.5 51.5808L51.6149 49.5H56.5V56.5H49.5V51.5808Z" fill="#006DF0"/>
<path d="M75.7496 64.3749C74.9759 64.3778 74.225 64.6369 73.6142 65.1119C73.0034 65.5868 72.5672 66.2507 72.3738 66.9999H70.4996V60.9624C73.63 58.8491 76.496 56.3683 79.0361 53.573C79.1735 53.414 79.2491 53.2109 79.2491 53.0007C79.2491 52.7906 79.1735 52.5875 79.0361 52.4285C75.5676 48.6206 71.5022 45.4028 66.9996 42.9015V35.0755L70.0139 32.9204C70.6376 33.4525 71.4297 33.7464 72.2496 33.7499C73.0053 33.7566 73.7432 33.5207 74.3549 33.0768C74.9666 32.6329 75.4198 32.0046 75.6478 31.284C75.8758 30.5635 75.8667 29.7888 75.6217 29.0738C75.3768 28.3589 74.9089 27.7414 74.2869 27.3121C73.6649 26.8828 72.9216 26.6643 72.1662 26.6889C71.4109 26.7134 70.6833 26.9796 70.0905 27.4484C69.4977 27.9171 69.0709 28.5637 68.8728 29.293C68.6747 30.0224 68.7159 30.796 68.9902 31.5002L65.6153 33.9135C65.5022 33.9945 65.41 34.1012 65.3464 34.2249C65.2828 34.3487 65.2496 34.4858 65.2496 34.6249V42.0002C61.7022 40.2386 57.8302 39.2259 53.8746 39.0252V33.6256C54.6994 33.4127 55.4182 32.9062 55.8963 32.2011C56.3745 31.4961 56.579 30.6408 56.4717 29.7957C56.3643 28.9507 55.9525 28.1737 55.3133 27.6106C54.6741 27.0475 53.8514 26.7368 52.9996 26.7368C52.1477 26.7368 51.3251 27.0475 50.6859 27.6106C50.0467 28.1737 49.6348 28.9507 49.5275 29.7957C49.4201 30.6408 49.6247 31.4961 50.1028 32.2011C50.5809 32.9062 51.2997 33.4127 52.1246 33.6256V39.0244C48.4919 39.2012 44.9271 40.0751 41.6246 41.5986V34.6249C41.6245 34.4858 41.5913 34.3487 41.5277 34.2249C41.4641 34.1012 41.3719 33.9945 41.2588 33.9135L37.8839 31.5002C38.1494 30.8036 38.1851 30.0403 37.9858 29.3219C37.7865 28.6035 37.3626 27.9677 36.7761 27.5075C36.1897 27.0472 35.4713 26.7866 34.7262 26.7638C33.981 26.7409 33.248 26.957 32.6345 27.3805C32.0209 27.804 31.5589 28.4127 31.316 29.1175C31.073 29.8223 31.0619 30.5864 31.2842 31.298C31.5066 32.0096 31.9507 32.6314 32.5517 33.0725C33.1527 33.5137 33.879 33.751 34.6246 33.7499C35.4444 33.7464 36.2365 33.4525 36.8602 32.9204L39.8746 35.0755V42.4377C35.0232 44.9926 30.654 48.3731 26.9631 52.4276C26.8256 52.5866 26.75 52.7897 26.75 52.9999C26.75 53.21 26.8256 53.4131 26.9631 53.5721C29.9753 56.8793 33.4381 59.7459 37.2496 62.0876V66.9999H35.3753C35.1623 66.175 34.6559 65.4562 33.9508 64.9781C33.2458 64.5 32.3905 64.2954 31.5454 64.4028C30.7004 64.5101 29.9234 64.922 29.3603 65.5612C28.7971 66.2004 28.4865 67.023 28.4865 67.8749C28.4865 68.7267 28.7971 69.5494 29.3603 70.1886C29.9234 70.8278 30.7004 71.2396 31.5454 71.347C32.3905 71.4543 33.2458 71.2498 33.9508 70.7716C34.6559 70.2935 35.1623 69.5747 35.3753 68.7499H38.1246C38.3566 68.7499 38.5792 68.6577 38.7433 68.4936C38.9074 68.3295 38.9996 68.1069 38.9996 67.8749V63.0982C42.51 65.0814 46.374 66.3595 50.3746 66.8607V73.1249H48.5003C48.2873 72.3 47.7809 71.5812 47.0758 71.1031C46.3708 70.625 45.5155 70.4204 44.6704 70.5278C43.8254 70.6351 43.0484 71.047 42.4853 71.6862C41.9221 72.3254 41.6115 73.148 41.6115 73.9999C41.6115 74.8517 41.9221 75.6744 42.4853 76.3136C43.0484 76.9528 43.8254 77.3646 44.6704 77.472C45.5155 77.5793 46.3708 77.3748 47.0758 76.8966C47.7809 76.4185 48.2873 75.6997 48.5003 74.8749H51.2496C51.4816 74.8749 51.7042 74.7827 51.8683 74.6186C52.0324 74.4545 52.1246 74.2319 52.1246 73.9999V66.9754C52.4159 66.9859 52.7056 66.9999 52.9996 66.9999C55.0651 66.9914 57.1219 66.7314 59.1246 66.2255V72.3741C58.2997 72.5871 57.5809 73.0936 57.1028 73.7986C56.6247 74.5037 56.4201 75.3589 56.5275 76.204C56.6348 77.0491 57.0467 77.826 57.6859 78.3892C58.3251 78.9523 59.1477 79.263 59.9996 79.263C60.8514 79.263 61.6741 78.9523 62.3133 78.3892C62.9525 77.826 63.3643 77.0491 63.4717 76.204C63.579 75.3589 63.3745 74.5037 62.8963 73.7986C62.4182 73.0936 61.6994 72.5871 60.8746 72.3741V65.7346C63.6373 64.8418 66.2816 63.6172 68.7496 62.0876V67.8749C68.7496 68.1069 68.8418 68.3295 69.0058 68.4936C69.1699 68.6577 69.3925 68.7499 69.6246 68.7499H72.3738C72.5386 69.3821 72.8773 69.9555 73.3516 70.4049C73.8258 70.8543 74.4166 71.1617 75.0568 71.2922C75.697 71.4227 76.3609 71.3711 76.9733 71.1432C77.5856 70.9154 78.1218 70.5204 78.5209 70.0031C78.92 69.4858 79.1661 68.867 79.2312 68.2169C79.2963 67.5668 79.1779 66.9115 78.8892 66.3253C78.6006 65.7392 78.1534 65.2457 77.5984 64.9009C77.0435 64.5562 76.4029 64.3739 75.7496 64.3749ZM72.2496 28.4999C72.5957 28.4999 72.934 28.6025 73.2218 28.7948C73.5096 28.9871 73.7339 29.2604 73.8664 29.5802C73.9988 29.8999 74.0335 30.2518 73.9659 30.5913C73.8984 30.9307 73.7317 31.2426 73.487 31.4873C73.2423 31.7321 72.9304 31.8987 72.591 31.9662C72.2515 32.0338 71.8996 31.9991 71.5799 31.8667C71.2601 31.7342 70.9868 31.5099 70.7945 31.2221C70.6022 30.9343 70.4996 30.596 70.4996 30.2499C70.4996 29.7857 70.6839 29.3406 71.0121 29.0124C71.3403 28.6842 71.7854 28.4999 72.2496 28.4999ZM34.6246 31.9999C34.2785 31.9999 33.9401 31.8972 33.6523 31.7049C33.3645 31.5127 33.1402 31.2393 33.0078 30.9196C32.8753 30.5998 32.8407 30.2479 32.9082 29.9085C32.9757 29.569 33.1424 29.2572 33.3871 29.0124C33.6319 28.7677 33.9437 28.601 34.2832 28.5335C34.6226 28.466 34.9745 28.5006 35.2943 28.6331C35.614 28.7655 35.8873 28.9898 36.0796 29.2776C36.2719 29.5654 36.3746 29.9038 36.3746 30.2499C36.3746 30.714 36.1902 31.1591 35.862 31.4873C35.5338 31.8155 35.0887 31.9999 34.6246 31.9999ZM31.9996 69.6249C31.6535 69.6249 31.3151 69.5222 31.0273 69.3299C30.7395 69.1377 30.5152 68.8643 30.3828 68.5446C30.2503 68.2248 30.2157 67.8729 30.2832 67.5335C30.3507 67.194 30.5174 66.8822 30.7621 66.6374C31.0069 66.3927 31.3187 66.226 31.6582 66.1585C31.9976 66.091 32.3495 66.1256 32.6693 66.2581C32.989 66.3905 33.2623 66.6148 33.4546 66.9026C33.6469 67.1904 33.7496 67.5288 33.7496 67.8749C33.7496 68.339 33.5652 68.7841 33.237 69.1123C32.9088 69.4405 32.4637 69.6249 31.9996 69.6249ZM45.1246 75.7499C44.7785 75.7499 44.4401 75.6472 44.1523 75.4549C43.8645 75.2627 43.6402 74.9893 43.5078 74.6696C43.3753 74.3498 43.3407 73.9979 43.4082 73.6585C43.4757 73.319 43.6424 73.0072 43.8871 72.7624C44.1319 72.5177 44.4437 72.351 44.7832 72.2835C45.1226 72.216 45.4745 72.2506 45.7943 72.3831C46.114 72.5155 46.3873 72.7398 46.5796 73.0276C46.7719 73.3154 46.8746 73.6538 46.8746 73.9999C46.8746 74.464 46.6902 74.9091 46.362 75.2373C46.0338 75.5655 45.5887 75.7499 45.1246 75.7499ZM61.7496 75.7499C61.7496 76.096 61.6469 76.4343 61.4546 76.7221C61.2623 77.0099 60.989 77.2342 60.6693 77.3667C60.3495 77.4991 59.9976 77.5338 59.6582 77.4662C59.3187 77.3987 59.0069 77.2321 58.7621 76.9873C58.5174 76.7426 58.3507 76.4307 58.2832 76.0913C58.2157 75.7518 58.2503 75.3999 58.3828 75.0802C58.5152 74.7604 58.7395 74.4871 59.0273 74.2948C59.3151 74.1025 59.6534 73.9999 59.9996 73.9999C60.4637 73.9999 60.9088 74.1842 61.237 74.5124C61.5652 74.8406 61.7496 75.2857 61.7496 75.7499ZM77.1854 52.9999C75.4888 54.7866 69.8591 60.3052 62.4609 63.2881C63.8903 61.9832 65.032 60.3948 65.8134 58.6241C66.5948 56.8535 66.9987 54.9394 66.9994 53.004C67.0001 51.0686 66.5975 49.1543 65.8173 47.3831C65.0371 45.612 63.8964 44.0228 62.4679 42.7169C69.8573 45.7015 75.4871 51.2157 77.1854 52.9999ZM53.8746 44.2499V40.7945C54.7643 40.8545 55.6446 41.0127 56.4996 41.2661V44.2499H53.8746ZM49.4996 44.2499V41.2661C50.3545 41.0127 51.2349 40.8545 52.1246 40.7945V44.2499H49.4996ZM59.9996 45.9999V59.9999H45.9996V45.9999H59.9996ZM52.1246 61.7499V65.2052C51.2349 65.1452 50.3545 64.987 49.4996 64.7336V61.7499H52.1246ZM53.8746 61.7499H56.4996V64.7336C55.6446 64.987 54.7643 65.1452 53.8746 65.2052V61.7499ZM58.2496 61.7499H60.8746C61.1066 61.7499 61.3292 61.6577 61.4933 61.4936C61.6574 61.3295 61.7496 61.1069 61.7496 60.8749V58.2499H64.0508C62.8372 60.79 60.7897 62.8375 58.2496 64.0511V61.7499ZM64.7333 56.4999H61.7496V53.8749H65.2049C65.1444 54.7645 64.9863 55.6448 64.7333 56.4999ZM61.7496 52.1249V49.4999H64.7333C64.9863 50.3549 65.1444 51.2352 65.2049 52.1249H61.7496ZM61.7496 47.7499V45.1249C61.7496 44.8928 61.6574 44.6702 61.4933 44.5062C61.3292 44.3421 61.1066 44.2499 60.8746 44.2499H58.2496V41.9486C60.7897 43.1623 62.8372 45.2098 64.0508 47.7499H61.7496ZM47.7496 41.9486V44.2499H45.1246C44.8925 44.2499 44.6699 44.3421 44.5058 44.5062C44.3418 44.6702 44.2496 44.8928 44.2496 45.1249V47.7499H41.9483C43.162 45.2098 45.2095 43.1623 47.7496 41.9486ZM41.2658 49.4999H44.2496V52.1249H40.7942C40.8547 51.2352 41.0129 50.3549 41.2658 49.4999ZM44.2496 53.8749V56.4999H41.2658C41.0129 55.6448 40.8547 54.7645 40.7942 53.8749H44.2496ZM44.2496 58.2499V60.8749C44.2496 61.1069 44.3418 61.3295 44.5058 61.4936C44.6699 61.6577 44.8925 61.7499 45.1246 61.7499H47.7496V64.0511C45.2095 62.8375 43.162 60.79 41.9483 58.2499H44.2496ZM51.2496 30.2499C51.2496 29.9038 51.3522 29.5654 51.5445 29.2776C51.7368 28.9898 52.0101 28.7655 52.3299 28.6331C52.6496 28.5006 53.0015 28.466 53.341 28.5335C53.6804 28.601 53.9923 28.7677 54.237 29.0124C54.4817 29.2572 54.6484 29.569 54.7159 29.9085C54.7835 30.2479 54.7488 30.5998 54.6164 30.9196C54.4839 31.2393 54.2596 31.5127 53.9718 31.7049C53.684 31.8972 53.3457 31.9999 52.9996 31.9999C52.5354 31.9999 52.0903 31.8155 51.7621 31.4873C51.4339 31.1591 51.2496 30.714 51.2496 30.2499ZM28.8137 52.9999C30.5103 51.2131 36.1401 45.6945 43.5382 42.7116C42.1089 44.0165 40.9671 45.605 40.1857 47.3756C39.4043 49.1463 39.0004 51.0603 38.9997 52.9957C38.9991 54.9311 39.4017 56.8454 40.1819 58.6166C40.9621 60.3878 42.1028 61.977 43.5312 63.2829C36.1418 60.2982 30.5121 54.784 28.8137 52.9999ZM75.7496 69.6249C75.4034 69.6249 75.0651 69.5222 74.7773 69.3299C74.4895 69.1377 74.2652 68.8643 74.1328 68.5446C74.0003 68.2248 73.9657 67.8729 74.0332 67.5335C74.1007 67.194 74.2674 66.8822 74.5121 66.6374C74.7569 66.3927 75.0687 66.226 75.4082 66.1585C75.7476 66.091 76.0995 66.1256 76.4193 66.2581C76.739 66.3905 77.0123 66.6148 77.2046 66.9026C77.3969 67.1904 77.4996 67.5288 77.4996 67.8749C77.4996 68.339 77.3152 68.7841 76.987 69.1123C76.6588 69.4405 76.2137 69.6249 75.7496 69.6249Z" fill="url(#paint0_linear)"/>
<path d="M47.75 48.625C48.2332 48.625 48.625 48.2332 48.625 47.75C48.625 47.2668 48.2332 46.875 47.75 46.875C47.2668 46.875 46.875 47.2668 46.875 47.75C46.875 48.2332 47.2668 48.625 47.75 48.625Z" fill="#006DF0"/>
<defs>
<linearGradient id="paint0_linear" x1="27" y1="53" x2="79" y2="53" gradientUnits="userSpaceOnUse">
<stop stop-color="#097CEF"/>
<stop offset="1" stop-color="#0746DE"/>
</linearGradient>
</defs>
</svg>
