<svg width="106" height="106" viewBox="0 0 106 106" fill="none" xmlns="http://www.w3.org/2000/svg">
<circle opacity="0.2" cx="53" cy="53" r="50" stroke="white"/>
<circle cx="53" cy="3" r="3" fill="white"/>
<circle cx="103" cy="53" r="3" transform="rotate(90 103 53)" fill="white"/>
<circle cx="53" cy="103" r="3" fill="white"/>
<circle cx="3" cy="53" r="3" transform="rotate(90 3 53)" fill="white"/>
<path fill-rule="evenodd" clip-rule="evenodd" d="M47.7475 37.2499V40.1812C48.7701 40.5427 49.6556 41.2121 50.2824 42.0974C50.9091 42.9826 51.2462 44.0403 51.2475 45.1249V60.8749C51.2462 61.9596 50.9091 63.0172 50.2824 63.9025C49.6556 64.7877 48.7701 65.4571 47.7475 65.8187V68.7499C47.7479 68.8944 47.7126 69.0367 47.6447 69.1642C47.5767 69.2917 47.4783 69.4004 47.3581 69.4806L45.1225 70.9681V72.3742C45.9473 72.5871 46.6662 73.0936 47.1443 73.7987C47.6224 74.5037 47.8269 75.359 47.7196 76.2041C47.6122 77.0491 47.2004 77.8261 46.5612 78.3892C45.922 78.9524 45.0994 79.263 44.2475 79.263C43.3956 79.263 42.573 78.9524 41.9338 78.3892C41.2946 77.8261 40.8827 77.0491 40.7754 76.2041C40.668 75.359 40.8726 74.5037 41.3507 73.7987C41.8288 73.0936 42.5477 72.5871 43.3725 72.3742V70.4999C43.372 70.3555 43.4074 70.2131 43.4753 70.0856C43.5432 69.9582 43.6417 69.8495 43.7619 69.7693L45.9975 68.2818V66.1249C45.0771 66.1237 44.1733 65.8805 43.3765 65.4198C42.5798 64.9591 41.9182 64.297 41.458 63.4999H37.7156L36.2255 65.7356C36.1456 65.8554 36.0373 65.9536 35.9103 66.0215C35.7833 66.0894 35.6415 66.125 35.4975 66.1249H33.6232C33.4103 66.9498 32.9038 67.6686 32.1987 68.1467C31.4937 68.6248 30.6384 68.8294 29.7934 68.722C28.9483 68.6147 28.1713 68.2028 27.6082 67.5636C27.0451 66.9244 26.7344 66.1018 26.7344 65.2499C26.7344 64.3981 27.0451 63.5754 27.6082 62.9362C28.1713 62.297 28.9483 61.8852 29.7934 61.7778C30.6384 61.6705 31.4937 61.875 32.1987 62.3532C32.9038 62.8313 33.4103 63.5501 33.6232 64.3749H35.0294L36.5195 62.1393C36.5994 62.0195 36.7077 61.9213 36.8347 61.8534C36.9617 61.7854 37.1035 61.7499 37.2475 61.7499H40.8262C40.7756 61.461 40.7492 61.1683 40.7475 60.8749C39.9065 60.879 39.077 60.68 38.3295 60.2948C37.5819 59.9096 36.9384 59.3495 36.4538 58.6623C35.9691 57.975 35.6575 57.1809 35.5456 56.3474C35.4336 55.5139 35.5246 54.6657 35.8107 53.8749H33.6232C33.4103 54.6998 32.9038 55.4186 32.1987 55.8967C31.4937 56.3748 30.6384 56.5794 29.7934 56.472C28.9483 56.3647 28.1713 55.9528 27.6082 55.3136C27.0451 54.6744 26.7344 53.8518 26.7344 52.9999C26.7344 52.1481 27.0451 51.3254 27.6082 50.6862C28.1713 50.047 28.9483 49.6352 29.7934 49.5278C30.6384 49.4205 31.4937 49.625 32.1987 50.1032C32.9038 50.5813 33.4103 51.3001 33.6232 52.1249H36.8494C37.0824 51.8644 37.341 51.6279 37.6211 51.4188C37.358 50.7624 37.2314 50.0593 37.249 49.3524C37.2667 48.6454 37.4283 47.9495 37.7239 47.3071C38.0195 46.6647 38.4429 46.0893 38.9684 45.616C39.4938 45.1428 40.1102 44.7815 40.7799 44.5544C40.7891 44.4708 40.8029 44.3889 40.8166 44.3074C40.8198 44.2882 40.8231 44.2691 40.8262 44.2499H37.2475C37.103 44.2504 36.9607 44.2151 36.8332 44.1471C36.7057 44.0792 36.597 43.9807 36.5169 43.8606L35.0294 41.6249H33.6232C33.4103 42.4498 32.9038 43.1686 32.1987 43.6467C31.4937 44.1248 30.6384 44.3294 29.7934 44.222C28.9483 44.1147 28.1713 43.7028 27.6082 43.0636C27.0451 42.4244 26.7344 41.6018 26.7344 40.7499C26.7344 39.8981 27.0451 39.0754 27.6082 38.4362C28.1713 37.797 28.9483 37.3852 29.7934 37.2778C30.6384 37.1705 31.4937 37.375 32.1987 37.8531C32.9038 38.3313 33.4103 39.0501 33.6232 39.8749H35.4975C35.6419 39.8745 35.7843 39.9098 35.9118 39.9777C36.0393 40.0457 36.1479 40.1441 36.2281 40.2643L37.7156 42.4999H41.458C41.9182 41.7029 42.5798 41.0408 43.3765 40.5801C44.1733 40.1194 45.0771 39.8762 45.9975 39.8749V37.7181L43.7619 36.2279C43.6421 36.148 43.5438 36.0397 43.4759 35.9127C43.408 35.7857 43.3725 35.6439 43.3725 35.4999V33.6257C42.5477 33.4127 41.8288 32.9062 41.3507 32.2012C40.8726 31.4961 40.668 30.6409 40.7754 29.7958C40.8827 28.9507 41.2946 28.1738 41.9338 27.6106C42.573 27.0475 43.3956 26.7368 44.2475 26.7368C45.0994 26.7368 45.922 27.0475 46.5612 27.6106C47.2004 28.1738 47.6122 28.9507 47.7196 29.7958C47.8269 30.6409 47.6224 31.4961 47.1443 32.2012C46.6662 32.9062 45.9473 33.4127 45.1225 33.6257V35.0318L47.3581 36.5219C47.4779 36.6019 47.5761 36.7101 47.6441 36.8371C47.712 36.9641 47.7475 37.1059 47.7475 37.2499ZM42.7924 29.2777C42.6001 29.5655 42.4975 29.9038 42.4975 30.2499C42.4975 30.7141 42.6819 31.1592 43.01 31.4874C43.3382 31.8156 43.7834 31.9999 44.2475 31.9999C44.5936 31.9999 44.9319 31.8973 45.2197 31.705C45.5075 31.5127 45.7318 31.2394 45.8643 30.9196C45.9967 30.5999 46.0314 30.248 45.9639 29.9085C45.8963 29.5691 45.7297 29.2572 45.4849 29.0125C45.2402 28.7677 44.9284 28.6011 44.5889 28.5336C44.2494 28.466 43.8976 28.5007 43.5778 28.6331C43.258 28.7656 42.9847 28.9899 42.7924 29.2777ZM29.2752 42.205C29.563 42.3973 29.9014 42.4999 30.2475 42.4999C30.7116 42.4999 31.1567 42.3156 31.4849 41.9874C31.8131 41.6592 31.9975 41.2141 31.9975 40.7499C31.9975 40.4038 31.8948 40.0655 31.7026 39.7777C31.5103 39.4899 31.237 39.2656 30.9172 39.1331C30.5974 39.0007 30.2455 38.966 29.9061 39.0336C29.5666 39.1011 29.2548 39.2677 29.01 39.5125C28.7653 39.7572 28.5986 40.0691 28.5311 40.4085C28.4636 40.748 28.4982 41.0999 28.6307 41.4196C28.7631 41.7394 28.9875 42.0127 29.2752 42.205ZM29.2752 54.455C29.563 54.6473 29.9014 54.7499 30.2475 54.7499C30.7116 54.7499 31.1567 54.5656 31.4849 54.2374C31.8131 53.9092 31.9975 53.4641 31.9975 52.9999C31.9975 52.6538 31.8948 52.3155 31.7026 52.0277C31.5103 51.7399 31.237 51.5156 30.9172 51.3831C30.5974 51.2507 30.2455 51.216 29.9061 51.2836C29.5666 51.3511 29.2548 51.5177 29.01 51.7625C28.7653 52.0072 28.5986 52.3191 28.5311 52.6585C28.4636 52.998 28.4982 53.3499 28.6307 53.6696C28.7631 53.9894 28.9875 54.2627 29.2752 54.455ZM29.2752 66.705C29.563 66.8973 29.9014 66.9999 30.2475 66.9999C30.7116 66.9999 31.1567 66.8156 31.4849 66.4874C31.8131 66.1592 31.9975 65.7141 31.9975 65.2499C31.9975 64.9038 31.8948 64.5655 31.7026 64.2777C31.5103 63.9899 31.237 63.7656 30.9172 63.6331C30.5974 63.5007 30.2455 63.466 29.9061 63.5336C29.5666 63.6011 29.2548 63.7677 29.01 64.0125C28.7653 64.2572 28.5986 64.569 28.5311 64.9085C28.4636 65.248 28.4982 65.5999 28.6307 65.9196C28.7631 66.2394 28.9875 66.5127 29.2752 66.705ZM45.7026 76.7222C45.8948 76.4344 45.9975 76.096 45.9975 75.7499C45.9975 75.2858 45.8131 74.8407 45.4849 74.5125C45.1567 74.1843 44.7116 73.9999 44.2475 73.9999C43.9014 73.9999 43.563 74.1026 43.2752 74.2949C42.9875 74.4871 42.7631 74.7605 42.6307 75.0802C42.4982 75.4 42.4636 75.7519 42.5311 76.0913C42.5986 76.4308 42.7653 76.7426 43.01 76.9874C43.2548 77.2321 43.5666 77.3988 43.9061 77.4663C44.2455 77.5338 44.5974 77.4992 44.9172 77.3667C45.237 77.2343 45.5103 77.01 45.7026 76.7222ZM48.9076 62.8194C49.2922 62.2439 49.4975 61.5672 49.4975 60.8749V45.1249C49.4975 44.4327 49.2922 43.756 48.9076 43.1804C48.523 42.6049 47.9764 42.1563 47.3369 41.8913C46.6973 41.6264 45.9936 41.5571 45.3147 41.6922C44.6357 41.8272 44.0121 42.1606 43.5226 42.6501C43.0331 43.1395 42.6998 43.7632 42.5647 44.4421C42.4297 45.121 42.499 45.8248 42.7639 46.4643C43.0288 47.1039 43.4774 47.6505 44.053 48.0351C44.6286 48.4197 45.3053 48.6249 45.9975 48.6249V50.3749C44.8275 50.3728 43.6917 49.9802 42.7701 49.2596C41.8484 48.5389 41.1936 47.5312 40.9094 46.3963C40.3363 46.6881 39.8547 47.1321 39.5175 47.6796C39.1802 48.2271 39.0003 48.8569 38.9975 49.4999C38.9987 49.8817 39.0637 50.2605 39.19 50.6208C39.6938 50.4606 40.2189 50.3777 40.7475 50.3749V52.1249C40.1924 52.1228 39.6451 52.2562 39.1532 52.5134C38.4561 52.8725 37.8998 53.4552 37.5735 54.1682C37.2471 54.8812 37.1696 55.6831 37.3534 56.4454C37.5372 57.2077 37.9717 57.8861 38.5871 58.372C39.2026 58.8579 39.9634 59.123 40.7475 59.1249C40.8187 59.1249 40.8817 59.1151 40.9448 59.1053C40.9848 59.099 41.0248 59.0928 41.0669 59.0891C41.4336 58.0752 42.1035 57.1989 42.9857 56.5792C43.8678 55.9594 44.9194 55.6262 45.9975 55.6249V57.3749C45.3053 57.3749 44.6286 57.5802 44.053 57.9648C43.4774 58.3494 43.0288 58.896 42.7639 59.5355C42.499 60.1751 42.4297 60.8788 42.5647 61.5577C42.6998 62.2367 43.0331 62.8603 43.5226 63.3498C44.0121 63.8393 44.6357 64.1726 45.3147 64.3077C45.9936 64.4427 46.6973 64.3734 47.3369 64.1085C47.9764 63.8436 48.523 63.395 48.9076 62.8194ZM77.6045 55.975C77.0476 56.32 76.4051 56.5018 75.75 56.4996C74.976 56.4971 74.2247 56.2381 73.6136 55.7632C73.0024 55.2882 72.566 54.6241 72.3725 53.8746H70.185C70.392 54.4349 70.4986 55.0273 70.5 55.6246C70.5 57.017 69.9469 58.3524 68.9623 59.337C67.9777 60.3215 66.6424 60.8746 65.25 60.8746C65.2459 61.1679 65.2196 61.4604 65.1712 61.7496H68.75C68.8941 61.7504 69.0358 61.7867 69.1625 61.8554C69.2892 61.9241 69.397 62.023 69.4762 62.1434L70.9725 64.3746H72.3725C72.5855 63.5498 73.0919 62.831 73.797 62.3529C74.5021 61.8748 75.3573 61.6702 76.2024 61.7775C77.0475 61.8849 77.8244 62.2967 78.3875 62.9359C78.9507 63.5751 79.2614 64.3978 79.2614 65.2496C79.2614 66.1015 78.9507 66.9242 78.3875 67.5633C77.8244 68.2025 77.0475 68.6144 76.2024 68.7217C75.3573 68.8291 74.5021 68.6245 73.797 68.1464C73.0919 67.6683 72.5855 66.9495 72.3725 66.1246H70.5C70.3559 66.1239 70.2142 66.0876 70.0875 66.0189C69.9608 65.9502 69.853 65.8513 69.7737 65.7309L68.2775 63.4996H64.5412C64.0809 64.297 63.419 64.9592 62.6219 65.4199C61.8249 65.8807 60.9207 66.1237 60 66.1246V68.2771L62.2312 69.7734C62.3516 69.8527 62.4505 69.9604 62.5192 70.0871C62.5879 70.2138 62.6243 70.3555 62.625 70.4996V72.3721C63.4498 72.5851 64.1687 73.0916 64.6468 73.7966C65.1249 74.5017 65.3294 75.3569 65.2221 76.202C65.1148 77.0471 64.7029 77.824 64.0637 78.3872C63.4245 78.9503 62.6019 79.261 61.75 79.261C60.8981 79.261 60.0755 78.9503 59.4363 78.3872C58.7971 77.824 58.3852 77.0471 58.2779 76.202C58.1706 75.3569 58.3751 74.5017 58.8532 73.7966C59.3313 73.0916 60.0502 72.5851 60.875 72.3721V70.9721L58.6438 69.4759C58.5234 69.3966 58.4245 69.2889 58.3558 69.1622C58.2871 69.0355 58.2507 68.8938 58.25 68.7496V65.8184C57.2274 65.4568 56.3419 64.7874 55.7151 63.9022C55.0884 63.0169 54.7512 61.9593 54.75 60.8746V45.1246C54.7512 44.04 55.0884 42.9824 55.7151 42.0971C56.3419 41.2118 57.2274 40.5424 58.25 40.1809V37.2496C58.2507 37.1055 58.2871 36.9638 58.3558 36.8371C58.4245 36.7104 58.5234 36.6027 58.6438 36.5234L60.875 35.0271V33.6271C60.0502 33.4142 59.3313 32.9077 58.8532 32.2026C58.3751 31.4976 58.1706 30.6424 58.2779 29.7973C58.3852 28.9522 58.7971 28.1753 59.4363 27.6121C60.0755 27.049 60.8981 26.7383 61.75 26.7383C62.6019 26.7383 63.4245 27.049 64.0637 27.6121C64.7029 28.1753 65.1148 28.9522 65.2221 29.7973C65.3294 30.6424 65.1249 31.4976 64.6468 32.2026C64.1687 32.9077 63.4498 33.4142 62.625 33.6271V35.4996C62.6243 35.6438 62.5879 35.7855 62.5192 35.9122C62.4505 36.0389 62.3516 36.1466 62.2312 36.2259L60 37.7221V39.8746C60.9207 39.8756 61.8249 40.1186 62.6219 40.5794C63.419 41.0401 64.0809 41.7023 64.5412 42.4996H68.2775L69.7737 40.2684C69.853 40.148 69.9608 40.0491 70.0875 39.9804C70.2142 39.9117 70.3559 39.8754 70.5 39.8746H72.3725C72.5855 39.0498 73.0919 38.331 73.797 37.8529C74.5021 37.3748 75.3573 37.1702 76.2024 37.2775C77.0475 37.3849 77.8244 37.7967 78.3875 38.4359C78.9507 39.0751 79.2614 39.8978 79.2614 40.7496C79.2614 41.6015 78.9507 42.4242 78.3875 43.0633C77.8244 43.7025 77.0475 44.1144 76.2024 44.2217C75.3573 44.3291 74.5021 44.1245 73.797 43.6464C73.0919 43.1683 72.5855 42.4495 72.3725 41.6246H70.9725L69.4762 43.8559C69.397 43.9763 69.2892 44.0752 69.1625 44.1439C69.0358 44.2126 68.8941 44.2489 68.75 44.2496H65.1712C65.1735 44.2629 65.1757 44.276 65.1779 44.289C65.193 44.3791 65.2074 44.4641 65.215 44.5559C66.2442 44.9116 67.1372 45.5785 67.7706 46.4642C68.4039 47.35 68.7462 48.4108 68.75 49.4996C68.7487 50.1566 68.6209 50.8072 68.3737 51.4159C68.6576 51.6241 68.9186 51.8616 69.1525 52.1246H72.3725C72.5363 51.4903 72.8748 50.9147 73.3495 50.4633C73.8242 50.0119 74.4161 49.7028 75.0579 49.5711C75.6996 49.4394 76.3654 49.4905 76.9795 49.7185C77.5937 49.9465 78.1315 50.3423 78.5318 50.8609C78.9322 51.3794 79.1789 51.9999 79.244 52.6518C79.3091 53.3036 79.19 53.9607 78.9002 54.5482C78.6103 55.1357 78.1614 55.63 77.6045 55.975ZM76.7222 51.5446C76.4345 51.3523 76.0961 51.2496 75.75 51.2496C75.2863 51.251 74.842 51.4358 74.5141 51.7637C74.1862 52.0916 74.0014 52.5359 74 52.9996C74 53.3458 74.1026 53.6841 74.2949 53.9719C74.4872 54.2597 74.7605 54.484 75.0803 54.6164C75.4001 54.7489 75.7519 54.7835 76.0914 54.716C76.4309 54.6485 76.7427 54.4818 76.9874 54.2371C77.2322 53.9923 77.3988 53.6805 77.4664 53.3411C77.5339 53.0016 77.4992 52.6497 77.3668 52.3299C77.2343 52.0102 77.01 51.7369 76.7222 51.5446ZM76.7222 39.2946C76.4345 39.1023 76.0961 38.9996 75.75 38.9996C75.2863 39.001 74.842 39.1858 74.5141 39.5137C74.1862 39.8416 74.0014 40.2859 74 40.7496C74 41.0958 74.1026 41.4341 74.2949 41.7219C74.4872 42.0097 74.7605 42.234 75.0803 42.3664C75.4001 42.4989 75.7519 42.5335 76.0914 42.466C76.4309 42.3985 76.7427 42.2318 76.9874 41.9871C77.2322 41.7423 77.3988 41.4305 77.4664 41.091C77.5339 40.7516 77.4992 40.3997 77.3668 40.0799C77.2343 39.7602 77.01 39.4869 76.7222 39.2946ZM60.2949 29.2774C60.1026 29.5652 60 29.9035 60 30.2496C60.0014 30.7133 60.1862 31.1577 60.5141 31.4855C60.842 31.8134 61.2863 31.9983 61.75 31.9996C62.0961 31.9996 62.4345 31.897 62.7222 31.7047C63.01 31.5124 63.2343 31.2391 63.3668 30.9193C63.4992 30.5996 63.5339 30.2477 63.4664 29.9082C63.3988 29.5688 63.2322 29.2569 62.9874 29.0122C62.7427 28.7675 62.4309 28.6008 62.0914 28.5333C61.7519 28.4657 61.4001 28.5004 61.0803 28.6329C60.7605 28.7653 60.4872 28.9896 60.2949 29.2774ZM63.2051 76.7219C63.3974 76.4341 63.5 76.0958 63.5 75.7496C63.4986 75.2859 63.3138 74.8416 62.9859 74.5137C62.658 74.1858 62.2137 74.001 61.75 73.9996C61.4039 73.9996 61.0655 74.1023 60.7778 74.2946C60.49 74.4869 60.2657 74.7602 60.1332 75.0799C60.0008 75.3997 59.9661 75.7516 60.0336 76.0911C60.1012 76.4305 60.2678 76.7423 60.5126 76.9871C60.7573 77.2318 61.0691 77.3985 61.4086 77.466C61.7481 77.5335 62.0999 77.4989 62.4197 77.3664C62.7395 77.234 63.0128 77.0097 63.2051 76.7219ZM76.7222 63.7946C76.4345 63.6023 76.0961 63.4996 75.75 63.4996C75.2863 63.501 74.842 63.6858 74.5141 64.0137C74.1862 64.3416 74.0014 64.7859 74 65.2496C74 65.5958 74.1026 65.9341 74.2949 66.2219C74.4872 66.5097 74.7605 66.734 75.0803 66.8664C75.4001 66.9989 75.7519 67.0335 76.0914 66.966C76.4309 66.8985 76.7427 66.7318 76.9874 66.4871C77.2322 66.2423 77.3988 65.9305 77.4664 65.5911C77.5339 65.2516 77.4992 64.8997 77.3668 64.5799C77.2343 64.2602 77.01 63.9869 76.7222 63.7946ZM65.06 59.1062C65.122 59.1155 65.183 59.1246 65.25 59.1246C66.0329 59.1221 66.7923 58.8571 67.4068 58.3721C68.0214 57.887 68.4555 57.21 68.64 56.4491C68.8244 55.6883 68.7484 54.8876 68.4241 54.175C68.0999 53.4624 67.5461 52.8791 66.8512 52.5184C66.3581 52.2573 65.808 52.122 65.25 52.1246V50.3746C65.7786 50.3763 66.3039 50.4589 66.8075 50.6196C67.0844 49.8261 67.062 48.9588 66.7446 48.1806C66.4272 47.4024 65.8366 46.7669 65.0838 46.3934C64.801 47.5285 64.1473 48.5367 63.2263 49.258C62.3053 49.9793 61.1698 50.3723 60 50.3746V48.6246C60.6922 48.6246 61.3689 48.4194 61.9445 48.0348C62.5201 47.6502 62.9687 47.1036 63.2336 46.464C63.4985 45.8245 63.5678 45.1208 63.4327 44.4418C63.2977 43.7629 62.9644 43.1393 62.4749 42.6498C61.9854 42.1603 61.3617 41.8269 60.6828 41.6919C60.0039 41.5568 59.3001 41.6262 58.6606 41.8911C58.0211 42.156 57.4744 42.6046 57.0899 43.1801C56.7053 43.7557 56.5 44.4324 56.5 45.1246V60.8746C56.5 61.5669 56.7053 62.2436 57.0899 62.8191C57.4744 63.3947 58.0211 63.8433 58.6606 64.1082C59.3001 64.3731 60.0039 64.4424 60.6828 64.3074C61.3617 64.1723 61.9854 63.839 62.4749 63.3495C62.9644 62.86 63.2977 62.2364 63.4327 61.5575C63.5678 60.8785 63.4985 60.1748 63.2336 59.5352C62.9687 58.8957 62.5201 58.3491 61.9445 57.9645C61.3689 57.5799 60.6922 57.3746 60 57.3746V55.6246C61.0779 55.6251 62.1293 55.9582 63.011 56.5783C63.8926 57.1984 64.5614 58.0754 64.9263 59.0896C64.973 59.0932 65.0167 59.0998 65.06 59.1062Z" fill="url(#paint0_linear)"/>
<defs>
<linearGradient id="paint0_linear" x1="26.8511" y1="53.0249" x2="51.1321" y2="53.0249" gradientUnits="userSpaceOnUse">
<stop stop-color="#097CEF"/>
<stop offset="1" stop-color="#0746DE"/>
</linearGradient>
</defs>
</svg>
