<svg width="106" height="106" viewBox="0 0 106 106" fill="none" xmlns="http://www.w3.org/2000/svg">
<circle opacity="0.2" cx="53" cy="53" r="50" stroke="white"/>
<circle cx="53" cy="3" r="3" fill="white"/>
<circle cx="103" cy="53" r="3" transform="rotate(90 103 53)" fill="white"/>
<circle cx="53" cy="103" r="3" fill="white"/>
<circle cx="3" cy="53" r="3" transform="rotate(90 3 53)" fill="white"/>
<path d="M74.1575 49.5C74.3639 50.0839 74.7701 50.5759 75.3042 50.8892C75.8383 51.2025 76.466 51.317 77.0763 51.2122C77.6866 51.1075 78.2402 50.7904 78.6393 50.317C79.0385 49.8436 79.2574 49.2443 79.2574 48.625C79.2574 48.0058 79.0385 47.4065 78.6393 46.9331C78.2402 46.4597 77.6866 46.1426 77.0763 46.0379C76.466 45.9331 75.8383 46.0476 75.3042 46.3609C74.7701 46.6742 74.3639 47.1662 74.1575 47.75H72.25V42.5H74.1575C74.3639 43.0839 74.7701 43.5759 75.3042 43.8892C75.8383 44.2025 76.466 44.317 77.0763 44.2122C77.6866 44.1075 78.2402 43.7904 78.6393 43.317C79.0385 42.8436 79.2574 42.2443 79.2574 41.625C79.2574 41.0058 79.0385 40.4065 78.6393 39.9331C78.2402 39.4597 77.6866 39.1426 77.0763 39.0379C76.466 38.9331 75.8383 39.0476 75.3042 39.3609C74.7701 39.6742 74.3639 40.1662 74.1575 40.75H72.25V36.375C72.25 36.143 72.1578 35.9204 71.9937 35.7563C71.8296 35.5922 71.6071 35.5 71.375 35.5H66.125V34.3801L68.155 33.7063C68.3278 33.646 68.4777 33.5338 68.5842 33.385C68.6908 33.2362 68.7487 33.0581 68.75 32.875V31.8425C69.3338 31.6361 69.8259 31.23 70.1392 30.6959C70.4525 30.1618 70.5669 29.5341 70.4622 28.9238C70.3575 28.3135 70.0404 27.7598 69.567 27.3607C69.0935 26.9616 68.4942 26.7427 67.875 26.7427C67.2558 26.7427 66.6565 26.9616 66.183 27.3607C65.7096 27.7598 65.3925 28.3135 65.2878 28.9238C65.1831 29.5341 65.2975 30.1618 65.6108 30.6959C65.9241 31.23 66.4162 31.6361 67 31.8425V32.245L64.97 32.9188C64.7972 32.9791 64.6473 33.0913 64.5408 33.2401C64.4342 33.3889 64.3763 33.567 64.375 33.75V35.5H60V31.8425C60.5838 31.6361 61.0759 31.23 61.3892 30.6959C61.7025 30.1618 61.8169 29.5341 61.7122 28.9238C61.6075 28.3135 61.2904 27.7598 60.817 27.3607C60.3435 26.9616 59.7442 26.7427 59.125 26.7427C58.5058 26.7427 57.9065 26.9616 57.433 27.3607C56.9596 27.7598 56.6425 28.3135 56.5378 28.9238C56.4331 29.5341 56.5475 30.1618 56.8608 30.6959C57.1741 31.23 57.6662 31.6361 58.25 31.8425V35.5H53.875V33.75C53.8737 33.567 53.8158 33.3889 53.7092 33.2401C53.6027 33.0913 53.4528 32.9791 53.28 32.9188L51.25 32.245V31.8425C51.8338 31.6361 52.3259 31.23 52.6392 30.6959C52.9525 30.1618 53.0669 29.5341 52.9622 28.9238C52.8575 28.3135 52.5404 27.7598 52.067 27.3607C51.5935 26.9616 50.9942 26.7427 50.375 26.7427C49.7558 26.7427 49.1565 26.9616 48.683 27.3607C48.2096 27.7598 47.8925 28.3135 47.7878 28.9238C47.6831 29.5341 47.7975 30.1618 48.1108 30.6959C48.4241 31.23 48.9162 31.6361 49.5 31.8425V32.875C49.5013 33.0581 49.5592 33.2362 49.6658 33.385C49.7723 33.5338 49.9222 33.646 50.095 33.7063L52.125 34.3801V35.5H46.875C46.6429 35.5 46.4204 35.5922 46.2563 35.7563C46.0922 35.9204 46 36.143 46 36.375V45.125H45.125V32C45.125 31.768 45.0328 31.5454 44.8687 31.3813C44.7046 31.2172 44.4821 31.125 44.25 31.125C41.0022 31.1285 37.8883 32.4203 35.5918 34.7168C33.2952 37.0134 32.0035 40.1272 32 43.375V49.1413L27.0037 54.1288C26.8426 54.2956 26.7517 54.5181 26.75 54.75V57.375C26.75 57.6071 26.8422 57.8297 27.0063 57.9938C27.1704 58.1579 27.3929 58.25 27.625 58.25H32V72.25C32 72.4821 32.0922 72.7047 32.2563 72.8688C32.4204 73.0329 32.6429 73.125 32.875 73.125H38.125C38.314 73.1233 38.4977 73.062 38.65 72.9501L40.75 71.3838V78.375C40.75 78.6071 40.8422 78.8297 41.0063 78.9938C41.1704 79.1579 41.3929 79.25 41.625 79.25H46C46.1357 79.2491 46.2693 79.2171 46.3907 79.1564C46.512 79.0957 46.6178 79.008 46.7 78.9L54.575 68.4C54.6895 68.2491 54.751 68.0645 54.75 67.875V61.75H57.375V78.375C57.375 78.6071 57.4672 78.8297 57.6313 78.9938C57.7954 79.1579 58.0179 79.25 58.25 79.25H79.25V77.5H59.125V61.75H60.875V74.875C60.875 75.1071 60.9672 75.3297 61.1313 75.4938C61.2954 75.6579 61.5179 75.75 61.75 75.75H74.875V74H62.625V61.75H64.375V71.375C64.375 71.6071 64.4672 71.8297 64.6313 71.9938C64.7954 72.1579 65.0179 72.25 65.25 72.25H79.25V70.5H66.125V61.75H67.875V67.875C67.875 68.1071 67.9672 68.3297 68.1313 68.4938C68.2954 68.6579 68.5179 68.75 68.75 68.75H74.875V67H69.625V61.75H71.375C71.6071 61.75 71.8296 61.6579 71.9937 61.4938C72.1578 61.3297 72.25 61.1071 72.25 60.875V56.5H74.1575C74.3639 57.0839 74.7701 57.5759 75.3042 57.8892C75.8383 58.2025 76.466 58.317 77.0763 58.2122C77.6866 58.1075 78.2402 57.7904 78.6393 57.317C79.0385 56.8436 79.2574 56.2443 79.2574 55.625C79.2574 55.0058 79.0385 54.4065 78.6393 53.9331C78.2402 53.4597 77.6866 53.1426 77.0763 53.0379C76.466 52.9331 75.8383 53.0476 75.3042 53.3609C74.7701 53.6742 74.3639 54.1662 74.1575 54.75H72.25V49.5H74.1575ZM76.625 47.75C76.7981 47.75 76.9672 47.8014 77.1111 47.8975C77.255 47.9937 77.3672 48.1303 77.4334 48.2902C77.4996 48.4501 77.5169 48.626 77.4832 48.7958C77.4494 48.9655 77.3661 49.1214 77.2437 49.2438C77.1213 49.3661 76.9654 49.4495 76.7957 49.4832C76.626 49.517 76.45 49.4997 76.2902 49.4334C76.1303 49.3672 75.9936 49.2551 75.8975 49.1112C75.8013 48.9673 75.75 48.7981 75.75 48.625C75.75 48.393 75.8422 48.1704 76.0063 48.0063C76.1704 47.8422 76.3929 47.75 76.625 47.75ZM76.625 40.75C76.7981 40.75 76.9672 40.8014 77.1111 40.8975C77.255 40.9937 77.3672 41.1303 77.4334 41.2902C77.4996 41.4501 77.5169 41.626 77.4832 41.7958C77.4494 41.9655 77.3661 42.1214 77.2437 42.2438C77.1213 42.3661 76.9654 42.4495 76.7957 42.4832C76.626 42.517 76.45 42.4997 76.2902 42.4334C76.1303 42.3672 75.9936 42.2551 75.8975 42.1112C75.8013 41.9673 75.75 41.7981 75.75 41.625C75.75 41.393 75.8422 41.1704 76.0063 41.0063C76.1704 40.8422 76.3929 40.75 76.625 40.75ZM67.875 28.5C68.0481 28.5 68.2172 28.5514 68.3611 28.6475C68.505 28.7437 68.6172 28.8803 68.6834 29.0402C68.7496 29.2001 68.7669 29.376 68.7332 29.5458C68.6994 29.7155 68.6161 29.8714 68.4937 29.9938C68.3713 30.1161 68.2154 30.1995 68.0457 30.2332C67.876 30.267 67.7 30.2497 67.5402 30.1834C67.3803 30.1172 67.2436 30.0051 67.1475 29.8612C67.0513 29.7173 67 29.5481 67 29.375C67 29.143 67.0922 28.9204 67.2563 28.7563C67.4204 28.5922 67.6429 28.5 67.875 28.5ZM50.375 30.25C50.2019 30.25 50.0328 30.1987 49.8889 30.1026C49.745 30.0064 49.6328 29.8698 49.5666 29.7099C49.5004 29.55 49.4831 29.3741 49.5168 29.2043C49.5506 29.0346 49.6339 28.8787 49.7563 28.7563C49.8787 28.634 50.0346 28.5506 50.2043 28.5169C50.374 28.4831 50.55 28.5004 50.7098 28.5667C50.8697 28.6329 51.0064 28.745 51.1025 28.8889C51.1987 29.0328 51.25 29.202 51.25 29.375C51.25 29.6071 51.1578 29.8297 50.9937 29.9938C50.8296 30.1579 50.6071 30.25 50.375 30.25ZM59.125 28.5C59.2981 28.5 59.4672 28.5514 59.6111 28.6475C59.755 28.7437 59.8672 28.8803 59.9334 29.0402C59.9996 29.2001 60.0169 29.376 59.9832 29.5458C59.9494 29.7155 59.8661 29.8714 59.7437 29.9938C59.6213 30.1161 59.4654 30.1995 59.2957 30.2332C59.126 30.267 58.95 30.2497 58.7902 30.1834C58.6303 30.1172 58.4936 30.0051 58.3975 29.8612C58.3013 29.7173 58.25 29.5481 58.25 29.375C58.25 29.143 58.3422 28.9204 58.5063 28.7563C58.6704 28.5922 58.8929 28.5 59.125 28.5ZM53 67.5863L45.5625 77.5H42.5V70.0888L47.4 66.44C47.5087 66.3585 47.5969 66.2529 47.6576 66.1314C47.7184 66.0099 47.75 65.8759 47.75 65.7401V61.75H53V67.5863ZM55.625 60H46.875C46.6429 60 46.4204 60.0922 46.2563 60.2563C46.0922 60.4204 46 60.643 46 60.875V65.3026L37.8363 71.375H33.75V57.375C33.75 57.143 33.6578 56.9204 33.4937 56.7563C33.3296 56.5922 33.1071 56.5 32.875 56.5H28.5V55.1088L33.4963 50.1213C33.6574 49.9545 33.7483 49.732 33.75 49.5V43.375C33.7532 40.7425 34.7438 38.207 36.5258 36.2694C38.3079 34.3318 40.7519 33.133 43.375 32.91V46C43.375 46.2321 43.4672 46.4547 43.6313 46.6188C43.7954 46.7829 44.0179 46.875 44.25 46.875H55.625V60ZM56.5 45.125H51.25V40.75H67V56.5H57.375V46C57.375 45.768 57.2828 45.5454 57.1187 45.3813C56.9546 45.2172 56.7321 45.125 56.5 45.125ZM70.5 60H57.375V58.25H67.875C68.1071 58.25 68.3296 58.1579 68.4937 57.9938C68.6578 57.8297 68.75 57.6071 68.75 57.375V39.875C68.75 39.643 68.6578 39.4204 68.4937 39.2563C68.3296 39.0922 68.1071 39 67.875 39H50.375C50.1429 39 49.9204 39.0922 49.7563 39.2563C49.5922 39.4204 49.5 39.643 49.5 39.875V45.125H47.75V37.25H70.5V60ZM76.625 54.75C76.7981 54.75 76.9672 54.8014 77.1111 54.8975C77.255 54.9937 77.3672 55.1303 77.4334 55.2902C77.4996 55.4501 77.5169 55.626 77.4832 55.7958C77.4494 55.9655 77.3661 56.1214 77.2437 56.2438C77.1213 56.3661 76.9654 56.4495 76.7957 56.4832C76.626 56.517 76.45 56.4997 76.2902 56.4334C76.1303 56.3672 75.9936 56.2551 75.8975 56.1112C75.8013 55.9673 75.75 55.7981 75.75 55.625C75.75 55.393 75.8422 55.1704 76.0063 55.0063C76.1704 54.8422 76.3929 54.75 76.625 54.75Z" fill="url(#paint0_linear)"/>
<defs>
<linearGradient id="paint0_linear" x1="27" y1="53.0213" x2="79.0082" y2="53.0213" gradientUnits="userSpaceOnUse">
<stop stop-color="#097CEF"/>
<stop offset="1" stop-color="#0746DE"/>
</linearGradient>
</defs>
</svg>
