<svg width="194" height="48" viewBox="0 0 194 48" fill="none" xmlns="http://www.w3.org/2000/svg">
<g opacity="0.5">
<path d="M60.5878 18.9358C59.1301 18.9358 57.8864 20.1503 57.8864 21.593V23.8834H54.1474V18.9358H54.0238C52.5661 18.9358 51.3142 20.1503 51.3142 21.593V30.6569H51.4378C52.8955 30.6569 54.1474 29.4424 54.1474 27.9996V25.7908H57.8864V30.6569H60.7196V18.9358H60.5878ZM173.139 18.9358C171.681 18.9358 170.429 20.1503 170.429 21.593V23.8834H166.69V18.9358H166.567C165.109 18.9358 163.857 20.1503 163.857 21.593V30.6569H163.981C165.439 30.6569 166.682 29.4424 166.682 27.9996V25.7908H170.421V30.6569H173.254V18.9358H173.139ZM44.5526 28.5866C42.823 28.5866 41.6783 25.7826 41.6783 22.4978C41.6783 19.2129 42.889 16.9144 44.5526 16.9144C46.2245 16.9144 47.4928 19.2129 47.4928 22.4978C47.4928 26.2146 46.4056 28.5866 44.5526 28.5866ZM44.5526 14.6484C41.2665 14.6484 39.1417 17.4523 38.8452 21.5278H35.5014V14.8848H35.4767C33.846 14.8848 32.5859 16.1645 32.5859 17.7295V30.6569H32.6106C34.2084 30.6406 35.5014 29.3528 35.5014 27.747V23.6226H38.8452C39.1005 27.4536 41.2336 30.9014 44.5526 30.9014C48.3658 30.9014 50.3836 27.2579 50.3836 22.5141C50.3918 18.08 48.234 14.6484 44.5526 14.6484ZM70.8003 18.9358C69.8696 18.9358 69.0378 19.2293 68.3789 20.2726L64.681 26.6303V18.9358H61.8479V30.6569H63.0503C63.9645 30.6569 64.7963 30.3634 65.4717 29.3201L69.3754 22.7423V27.9996C69.3754 29.4424 70.6191 30.6569 72.0768 30.6569H72.2086V18.9358H70.8003ZM127.751 18.9358C126.82 18.9358 125.989 19.2293 125.329 20.2726L121.632 26.6303V18.9358H118.798V30.6569H120.001C120.916 30.6569 121.747 30.3634 122.422 29.3201L126.326 22.7423V27.9996C126.326 29.4424 127.57 30.6569 129.036 30.6569H129.16V18.9358H127.751ZM82.2646 24.9431C81.6057 23.4759 80.6257 22.4326 79.2091 21.8865L84.307 14.8766H81.128L76.203 21.8213V14.9093H76.1371C74.5064 14.9093 73.2793 16.083 73.2793 17.6724V30.6569H73.3451C74.9758 30.6569 76.1947 29.4831 76.1947 27.8937V23.0765C77.6525 23.0765 78.7561 24.0383 79.2832 25.2936L81.3751 30.6488H84.5871L82.2646 24.9431ZM138.285 18.9358H129.769V21.1773H132.635V30.6569H132.759C134.233 30.6569 135.418 29.4586 135.418 28.016V21.1773H138.285V18.9358ZM108.949 28.5213C110.258 27.1438 110.884 24.6741 111.181 22.7668L111.37 21.0714H113.569L114.244 28.5213H108.949ZM116.863 28.4398L115.891 18.944H109.105L108.685 21.7886C108.306 24.3236 107.705 27.5025 105.415 28.8636L105.605 33.7135H105.753C106.873 33.7135 107.779 32.8169 107.779 31.7083L107.821 30.6569H115.546L115.653 33.7135H115.801C116.921 33.7135 117.827 32.8169 117.827 31.7083L117.925 28.8555L116.863 28.4398ZM182.462 26.9074C181.836 25.6766 181.087 24.7393 179.966 24.2828L184.159 18.944H181.111L177.051 24.2258V18.9358H174.218V30.6569H174.341C175.799 30.6569 177.051 29.4424 177.051 27.9996V25.3343C178.228 25.3343 179.077 26.2065 179.546 27.2253L181.251 30.6569H184.298L182.462 26.9074ZM147.616 28.7251H145.903V23.1254C146.266 23.0439 146.899 22.9216 147.443 22.9216C149.494 22.9216 150.688 24.128 150.688 25.6278C150.696 27.2335 149.543 28.7251 147.616 28.7251ZM147.748 20.7861C147.048 20.7861 146.307 20.9002 145.911 21.0061V17.3301H149.667C151.009 17.3301 152.096 16.2541 152.096 14.9256V14.8848H143.078V30.6569H147.665C151.1 30.6569 153.661 28.8229 153.661 25.6848C153.653 22.995 151.528 20.7861 147.748 20.7861ZM97.9539 23.9813C97.9539 21.9109 98.695 20.8024 100.276 20.7616H100.384C101.166 20.7616 102.624 21.0143 102.706 23.3373L97.9539 23.9813ZM105.16 24.4866C105.16 20.9736 103.447 18.944 100.359 18.944C97.2294 18.944 95.3266 21.267 95.3266 24.8453C95.3266 28.5295 97.3778 30.8281 100.82 30.8281C102.722 30.8281 104.056 30.3634 104.773 29.9885V27.6655C104.056 28.1708 103.06 28.7985 101.092 28.7985C99.3207 28.7985 98.341 27.7959 98.1101 25.8886L105.152 24.9268V24.4866H105.16ZM160.505 29.2305C160.234 29.2956 159.533 29.3364 158.941 29.3364C157.417 29.3364 156.527 28.6843 156.527 27.2416C156.527 25.2936 158.026 24.7963 160.497 24.5681V29.2305H160.505ZM154.015 27.3313C154.015 29.5321 155.646 30.8281 158.767 30.8281H159.361C160.456 30.8281 162.276 30.6569 163.058 30.5101V23.0602C163.058 20.134 161.074 18.9358 158.685 18.9358C156.865 18.9358 155.473 19.4575 154.732 19.8161V21.6746C155.975 21.0225 157.096 20.6068 158.215 20.6068C159.566 20.6068 160.497 21.0061 160.497 22.4896V23.264C156.972 23.6063 154.015 24.3154 154.015 27.3313ZM88.9603 29.0266C88.5568 29.0266 88.2438 28.9859 87.9638 28.88V20.9083C88.3261 20.7861 88.6803 20.7209 89.1497 20.7209C90.9863 20.7209 91.7935 22.0413 91.7935 24.8453C91.7935 26.72 91.3075 29.0266 88.9603 29.0266ZM89.2074 18.9358C87.6014 18.9358 86.2672 19.2048 85.2377 19.7509L85.1719 19.7916V35.2948H85.3201C86.7778 35.2948 87.9638 34.1048 87.9638 32.662V30.6324C88.3673 30.7384 88.9192 30.8199 89.5286 30.8199C92.5924 30.8199 94.6019 28.3909 94.6019 24.7556C94.6019 21.1366 92.5759 18.9358 89.2074 18.9358Z" fill="#AEB3CA"/>
<path d="M19.961 17.5178C19.9693 17.5096 19.9693 17.5015 19.9775 17.4933C20.134 17.2733 20.0681 17.1102 19.961 17.0205C19.8952 16.9635 18.3716 16.0506 18.3716 16.0506C18.2645 15.9773 18.1904 15.855 18.1904 15.7083C18.1904 15.4881 18.3221 15.317 18.6351 15.2273C19.6151 14.9583 23.0743 14.8198 24.2437 14.8198C24.6473 14.8198 25.3556 14.8198 25.9814 14.8361L25.9568 14.8116C24.2354 13.3608 21.9953 12.4805 19.5575 12.4805C14.1136 12.4805 9.69922 16.8493 9.69922 22.2371C9.69922 24.6091 10.5557 26.7773 11.9723 28.4645C13.2077 26.7038 16.2715 22.3594 16.9385 21.471C17.7127 20.444 19.4752 18.1698 19.7717 17.7868L19.7881 17.7705L19.961 17.5178ZM13.5454 29.9724C15.209 31.244 17.2927 31.9938 19.5575 31.9938C25.0015 31.9938 29.4158 27.6249 29.4158 22.2371C29.4158 20.607 29.0123 19.0665 28.2958 17.7215C28.6334 17.3955 29.0288 16.882 28.7652 16.2462C28.6829 16.0588 28.304 15.6186 28.2052 15.5126L28.2217 15.5533C28.4605 16.2706 27.991 16.719 27.6451 17.0205C27.4557 17.1917 24.952 19.5229 22.0201 22.066C19.434 24.3075 16.535 26.5816 14.8631 27.8287C12.5077 29.573 12.0464 29.8257 12.0464 29.8257C11.9806 29.8583 11.8817 29.8909 11.8076 29.8909C11.6675 29.8909 11.5358 29.8257 11.4617 29.7278C11.4452 29.7605 11.4452 29.7849 11.4535 29.8013C11.7088 30.2088 12.1288 30.6733 12.3676 30.6733C12.4418 30.6733 12.5488 30.6408 12.6147 30.6081C12.6065 30.6 12.7959 30.5022 13.5454 29.9724Z" fill="#555F8C"/>
<path d="M19.978 17.4928C20.1262 17.2728 20.0685 17.1097 19.9615 17.02C19.8956 16.963 18.372 16.0502 18.372 16.0502C18.2649 15.9768 18.1908 15.8545 18.1908 15.7078C18.1908 15.4795 18.3308 15.3165 18.6356 15.2269C19.6156 14.9579 23.0747 14.8193 24.2441 14.8193C24.7959 14.8193 25.8995 14.8193 26.616 14.86C27.4232 14.909 28.0409 15.0802 28.1973 15.4632C28.4939 16.2213 27.9997 16.694 27.6455 17.012C27.4562 17.1831 24.9606 19.5143 22.0205 22.0574C19.4344 24.2989 16.5354 26.573 14.8635 27.82C12.5081 29.5644 12.0468 29.817 12.0468 29.817C11.981 29.8497 11.8821 29.8823 11.7998 29.8823C11.5527 29.8823 11.3633 29.6948 11.3633 29.4584C11.3633 29.3688 11.388 29.2791 11.4374 29.2139C11.4374 29.2139 16.0824 22.5953 16.9224 21.4705C17.7707 20.3538 19.7968 17.7292 19.7968 17.7292C19.7968 17.7292 19.8297 17.7048 19.978 17.4928Z" fill="#AEB3CA"/>
</g>
</svg>
