<svg width="190" height="48" viewBox="0 0 190 48" fill="none" xmlns="http://www.w3.org/2000/svg">
<g opacity="0.5">
<path d="M75.05 9.3406H52.3925L54.036 4.7998H76.665L75.05 9.3406ZM74.2425 11.5966H51.585L49.951 16.1278H72.58L74.2425 11.5966V11.5966ZM71.7915 18.3646H49.1435L47.5 22.8958H70.11L71.7915 18.3646V18.3646Z" fill="#6A708B"/>
<path d="M128.942 34.2244H132.998C133.578 34.2981 134.167 34.2244 134.711 34.0097C135.255 33.7951 135.737 33.4466 136.114 32.9956C136.68 32.2572 136.961 31.3357 136.903 30.4036C136.937 29.81 136.827 29.2169 136.582 28.6763C136.337 28.1358 135.964 27.6642 135.497 27.3028C134.738 26.8031 133.835 26.5734 132.932 26.65H128.894V34.2148L128.942 34.2244V34.2244ZM123.593 38.7844V11.5972H141.102L139.553 16.1572H128.942V22.1764H133.264C136.76 22.1764 138.565 23.0212 139.819 24.0964C140.715 24.9018 141.419 25.901 141.88 27.0196C142.341 28.1383 142.546 29.3475 142.479 30.5572C142.545 31.8545 142.29 33.1479 141.737 34.321C141.185 35.4941 140.353 36.5099 139.316 37.2772C137.625 38.458 135.867 38.794 132.286 38.794L123.593 38.7844V38.7844ZM108.08 38.7844V16.1572H100.29V11.5972H121.902L120.354 16.1572H113.466V38.8132H108.07L108.08 38.7844ZM86.5148 22.4644H89.5833C90.2202 22.518 90.8615 22.4694 91.4833 22.3204C92.1202 22.1124 92.6687 21.6929 93.0396 21.1299C93.4105 20.5668 93.5818 19.8936 93.5258 19.2196C93.6131 18.5499 93.453 17.8712 93.0761 17.3133C92.6994 16.7554 92.1322 16.3575 91.4833 16.1956C90.8147 16.0355 90.1272 15.9709 89.4408 16.0036H86.5908V22.4644H86.5148V22.4644ZM86.5148 27.1684V34.3012H90.2483C91.2641 34.4133 92.2839 34.1282 93.0983 33.5044C93.4808 33.1544 93.7823 32.7234 93.9809 32.2422C94.1797 31.7609 94.2708 31.2413 94.2478 30.7204C94.2677 29.8852 94.0176 29.0661 93.5353 28.3876C92.7468 27.3508 91.7493 27.1588 90.0868 27.1588H86.5243L86.5148 27.1684V27.1684ZM95.1408 24.2884V24.3844C96.0575 24.7603 96.9097 25.2786 97.6678 25.9204C98.4373 26.5637 99.0443 27.3818 99.4405 28.3078C99.8366 29.2338 100.01 30.2415 99.9478 31.2484C99.9478 34.9732 98.0003 37.6612 94.7893 38.4484C93.5069 38.7686 92.1851 38.8979 90.8658 38.8324H81.1758V11.5972H89.8018C91.1742 11.5451 92.5475 11.6742 93.8868 11.9812C97.0028 12.826 99.0453 15.0052 99.0453 18.442C99.0719 19.2567 98.9332 20.0684 98.6396 20.8277C98.3451 21.5868 97.9015 22.2775 97.3353 22.858C96.732 23.477 96.0119 23.9668 95.2168 24.298H95.1408V24.2884V24.2884Z" fill="#AEB3CA"/>
</g>
</svg>
