<svg width="192" height="48" viewBox="0 0 192 48" fill="none" xmlns="http://www.w3.org/2000/svg">
<g opacity="0.5">
<path d="M163.195 16.372H166.424L166.408 21.5835H167.106L168.945 16.372H172.438L169.933 23.2618L172.799 30.8904H169.017L167.154 25.0525H166.391L166.408 30.8904H163.179V16.372H163.195ZM152.315 16.372H155.527V21.6076H157.823V16.372H161.027V30.8904H157.823V25.0686H155.527V30.8904H152.315V16.372ZM141.129 30.9145H144.469L144.871 28.401H147.167L147.569 30.9145H150.909L148.098 16.396H143.955L141.129 30.9145ZM146.027 20.7965L146.637 25.2131H145.401L146.027 20.7965ZM132.167 30.8904H136.077C136.929 30.8904 140.487 30.521 140.502 26.1205C140.502 22.4267 137.748 21.7842 135.965 21.7842H135.379V19.857H139.731V16.372H132.175L132.167 30.8904ZM135.371 27.9755V24.6911H135.845C136.246 24.6911 137.266 24.7071 137.266 26.2088C137.266 27.7265 136.239 27.9755 135.845 27.9755H135.371ZM119.423 16.372H122.218L124.683 19.8008L127.172 16.372H129.943V30.8904H126.659V22.0412L124.683 24.5706L122.707 22.0412V30.8904H119.423V16.372ZM112.638 31.0671C116.533 31.0671 117.841 27.325 117.841 23.6151C117.841 19.9051 116.533 16.1632 112.638 16.1632C108.743 16.1632 107.434 19.8972 107.434 23.6151C107.434 27.333 108.751 31.0671 112.638 31.0671ZM112.638 27.5418C111.481 27.5418 110.887 26.1607 110.887 23.6151C110.887 21.0695 111.473 19.6803 112.638 19.6803C113.802 19.6803 114.38 21.0616 114.38 23.6151C114.38 26.1687 113.802 27.5498 112.638 27.5418ZM97.9269 30.8904H101.211V26.1044H102.311C105.555 26.1044 106.567 23.1092 106.567 21.1981C106.567 19.3351 105.411 16.372 102.311 16.372H97.9269V30.8904ZM101.211 19.5679H101.99C102.729 19.5679 103.202 20.0337 103.202 21.2382C103.202 22.796 102.4 22.9084 101.99 22.9084H101.211V19.5679ZM87.0779 16.372H96.0395V30.8904H92.7552V19.8811H90.3622V30.8904H87.0779V16.372ZM80.3406 22.001C80.8706 22.001 81.8422 21.6477 81.8422 20.5797C81.8422 19.319 80.726 19.2387 80.3968 19.2387C80.0193 19.2387 79.2967 19.3029 78.59 19.6482L78.5499 16.4924C79.6661 16.2033 80.4691 16.123 81.4166 16.123C84.1147 16.123 85.3113 18.0502 85.3113 19.9373C85.3113 21.7682 84.2834 22.8763 83.2796 23.3019V23.4384C84.2512 23.7516 85.5361 24.7072 85.5361 26.9235C85.5361 29.6698 83.6731 31.1875 81.2801 31.1875C80.0114 31.1714 79.1682 30.9948 78.1644 30.4327L78.2206 27.4133C79.1522 27.8228 79.7785 27.8631 80.4048 27.8631C81.4648 27.8631 81.8823 27.06 81.8823 26.4818C81.8823 25.6627 81.3684 25.1167 80.2522 25.1167H78.9193V22.001H80.3406ZM67.4282 30.8904H70.7527L71.1702 28.3769H73.4668L73.8683 30.8904H77.1928L74.3822 16.372H70.2467C70.2387 16.372 67.4282 30.8904 67.4282 30.8904ZM72.3025 20.7564L72.9288 25.189H71.6761L72.3025 20.7564ZM61.0683 16.372H67.8056V19.9936H64.4089V30.8904H61.0683V16.372ZM20.0343 23.7998C20.0343 32.7293 27.141 40.0046 35.8778 40.0046C44.5984 40.0046 51.697 32.7293 51.697 23.7998C51.697 14.8542 44.5984 7.57895 35.8778 7.57895C27.1329 7.57092 20.0343 14.8462 20.0343 23.7998ZM19.1992 23.7998C19.1992 14.3804 26.6752 6.71973 35.8778 6.71973C45.0561 6.71973 52.5322 14.3725 52.5322 23.7998C52.5322 33.2031 45.0561 40.8557 35.8778 40.8557C26.6752 40.8557 19.1992 33.2031 19.1992 23.7998Z" fill="#AEB3CA"/>
<path d="M30.8988 13.0158C30.3206 13.2728 29.7745 13.594 29.2687 13.9634C33.2355 12.1566 38.0777 12.269 40.6795 13.4575C41.4985 13.8429 42.0446 14.0838 42.2935 14.5496C39.5954 13.8108 38.4391 13.6742 36.1826 13.7305C32.9706 13.7867 28.6986 15.0876 27.0684 16.0833L26.3457 17.0068C28.6986 15.5854 33.083 14.6539 35.5161 14.5737C38.2303 14.5335 40.3422 14.7904 42.2775 15.5052C42.1651 16.0111 41.9161 16.26 41.4985 16.5169C33.7495 15.1358 29.1723 16.7658 25.0368 19.5282L24.7317 20.4437C29.349 17.1995 35.0022 16.3001 40.4546 17.2718C38.5033 17.9703 36.1665 18.131 34.2072 18.5887C32.5369 18.9822 31.6456 19.0946 29.4213 19.8574C27.1648 20.6123 25.8318 21.3912 24.9966 22.3869C24.5951 22.8527 24.2901 23.3988 24.2178 23.9849C24.1856 24.3302 24.2016 24.6515 24.3141 24.9566C24.4025 25.2296 24.6192 25.5026 24.8441 25.7756C24.5791 26.2414 24.3462 26.8436 24.7317 27.5503C24.9003 27.8796 25.3419 28.2087 25.7595 28.522L25.6391 28.8672C25.5829 29.2767 25.5266 29.7666 25.7917 30.1681C26.2414 30.9069 26.7954 31.3967 27.6707 31.8625C27.8072 32.4647 28.0079 32.9546 28.4657 33.3802C29.4373 34.2956 31.5974 36.0462 35.4519 36.3192C38.3427 36.5119 40.4064 35.6206 41.1854 35.2271L42.1329 34.7212C40.5189 35.3797 37.8047 35.7732 35.5803 35.5724C32.3522 35.2994 29.4695 33.1393 29.1081 32.5129C29.2205 32.5933 29.3731 32.6494 29.5015 32.7057C33.2837 34.5766 38.158 35.5885 44.4135 32.9787L44.9274 32.4728C39.2421 34.2795 34.2715 34.2233 28.9314 31.3646C28.9876 31.0916 29.1081 30.8507 29.349 30.666C30.7141 31.2843 32.031 31.7983 33.621 32.1194C35.4839 32.4728 37.612 32.553 39.3545 32.4728C41.1212 32.3924 44.6142 31.5012 46.2684 30.6017C46.421 30.4652 46.4932 30.2323 46.6459 30.0798C43.4178 31.2843 39.5793 31.8464 37.2667 31.6697C35.0022 31.4931 32.9947 31.2201 30.3367 29.9754C30.8506 29.7666 31.3806 29.59 31.9106 29.4294C33.6612 29.9754 35.4438 30.3046 37.5478 30.401C39.6356 30.4974 44.5178 29.7024 47.5934 27.7992C47.6898 27.5262 47.7862 27.2291 47.7862 27.2291C47.7862 27.2291 43.5141 29.5659 38.6719 29.5659C36.4075 29.5659 35.0263 29.2366 33.9984 28.9796C36.2789 28.5541 39.1457 28.2008 42.3739 27.3656C44.0039 26.94 46.0195 25.9603 46.9349 25.1493C47.7139 24.4266 48.3241 23.4951 48.1153 22.5396C48.0752 22.2826 47.738 21.6803 47.3123 21.4716C47.7139 20.9495 47.6737 20.4998 47.6175 20.1144C47.5774 19.8173 47.4408 19.4881 47.2802 19.199C47.0153 18.8457 46.7663 18.5726 46.2524 18.2595C46.3327 17.85 46.2765 17.4324 46.0998 17.055C45.6983 16.3563 44.9836 15.7541 43.747 15.1117C43.6908 14.8547 43.5382 14.5255 43.2732 14.1962C41.7154 12.6224 39.1698 11.8595 37.0258 11.8193H36.6724C34.167 11.8434 32.1515 12.4215 30.8988 13.0158ZM43.0564 16.9104C43.2491 16.6936 43.5302 16.3644 43.6025 16.0913C44.1405 16.4447 44.7427 16.9667 44.815 17.5127C44.2529 17.2958 43.6426 17.063 43.0564 16.9104ZM43.5302 19.2793C42.6228 19.0223 41.8198 18.7172 40.7598 18.5245C41.4102 18.2675 41.8438 18.0025 42.2212 17.6894C43.0725 17.9222 43.8674 18.2113 44.5178 18.5084C44.4054 18.677 43.755 19.2953 43.5543 19.2953C43.5462 19.2874 43.5382 19.2874 43.5302 19.2793ZM45.1844 19.9619C45.4333 19.7691 45.6581 19.5523 45.8669 19.3034C46.3808 19.7531 46.5335 20.0582 46.2845 20.548C45.9392 20.291 45.5779 20.1545 45.1844 19.9619ZM25.6792 24.788C24.2739 22.8045 29.1482 21.3831 30.0797 21.0941C32.4486 20.3714 35.227 19.8334 37.7325 19.5202C39.4589 19.3034 40.3743 19.5041 42.0045 19.9458C37.8046 21.0941 33.6612 21.4635 29.7184 22.652C26.5385 23.5914 25.6953 24.788 25.6792 24.788ZM26.7232 25.7436C28.2087 24.4587 31.2281 23.736 32.3281 23.4871C35.8373 22.7081 39.1055 22.2183 40.4546 21.873C42.0847 21.4635 43.225 21.0781 44.02 20.6846C44.0601 20.6284 45.353 21.2707 45.4815 21.4234C45.0479 21.7927 44.4376 22.1059 43.7711 22.3387C41.7796 23.0775 38.15 23.8565 36.2308 24.1536C34.2956 24.4828 32.6735 24.7317 30.5375 25.3179C29.3008 25.6552 28.4657 26.0407 27.8554 26.4502C27.4057 26.1691 27.1407 26.0889 26.7232 25.7436ZM29.4774 27.3014C30.1038 27.0283 30.7864 26.8116 31.4448 26.6429C34.7854 25.7997 37.7325 25.6472 41.7957 24.5229C43.747 23.993 45.1763 23.4308 46.0677 22.7322C46.1962 22.6118 46.3327 22.5155 46.4692 22.403C47.6496 24.274 43.225 25.7114 40.1976 26.3779C38.6158 26.6991 37.0338 27.0042 35.4519 27.2934C33.4765 27.6226 32.8341 27.7992 31.4609 28.2087C30.7864 27.9197 30.1038 27.6306 29.4774 27.3014ZM25.9201 26.7152C26.2252 26.9159 26.4502 27.0685 26.8115 27.2612C26.675 27.3817 26.5063 27.4941 26.3779 27.6306C26.0807 27.454 25.7756 27.0685 25.9201 26.7152ZM27.502 28.5059C27.6948 28.3292 27.9357 28.1606 28.2007 27.9839C28.7709 28.2569 29.357 28.5059 29.9111 28.7629C29.5417 28.8994 29.1884 29.076 28.8511 29.2929C28.3934 29.0278 27.9437 28.7709 27.502 28.5059ZM27.0042 29.4535C27.3254 29.6702 27.6466 29.8469 27.9758 30.0156C27.8393 30.2082 27.743 30.3609 27.6948 30.5616C27.213 30.1601 26.9881 29.8309 27.0042 29.4535Z" fill="#AEB3CA"/>
</g>
</svg>
