<svg width="188" height="48" viewBox="0 0 188 48" fill="none" xmlns="http://www.w3.org/2000/svg">
<g opacity="0.5">
<path d="M55.7511 27.6861C56.4292 28.4229 57.2614 28.9939 58.1857 29.3565C59.3074 29.7926 60.5015 30.0013 61.7013 29.9709C62.3781 29.9709 63.0173 29.8941 63.5813 29.8461C64.1017 29.7841 64.611 29.6485 65.0947 29.4429C65.522 29.3187 65.9373 29.1548 66.3355 28.9533C66.6551 28.7517 67.0123 28.6269 67.2755 28.4637L66.7397 27.4365C66.4577 27.5613 66.2227 27.7245 65.9407 27.8397C65.6587 27.9549 65.4237 28.0413 65.0665 28.1661C64.7311 28.2758 64.3839 28.3436 64.0325 28.3677C63.569 28.4378 63.1001 28.4636 62.6319 28.4445C61.7675 28.4958 60.9076 28.2854 60.1597 27.8397C59.5431 27.4533 59.0246 26.9238 58.6463 26.2941C58.2905 25.5492 58.0495 24.7527 57.9319 23.9325C57.801 22.9461 57.7351 21.952 57.7345 20.9565C57.7345 20.1405 57.8097 19.2861 57.8567 18.3837C57.894 17.5868 58.0992 16.8075 58.4583 16.0989C58.7448 15.4225 59.2022 14.8362 59.7837 14.3997C60.4973 13.9305 61.3321 13.6898 62.1807 13.7085C63.0324 13.707 63.8658 13.9606 64.5777 14.4381C64.924 14.7193 65.2108 15.0693 65.4209 15.4671C65.6309 15.8647 65.7597 16.3018 65.7997 16.7517H66.8337V13.4397C66.5141 13.3149 66.1569 13.1517 65.7997 13.0365C65.3917 12.9167 64.9775 12.8206 64.5589 12.7485C64.0795 12.6717 63.6847 12.6717 63.2429 12.6237C62.8011 12.5757 62.4439 12.5469 62.1243 12.5469C60.8448 12.516 59.5705 12.7243 58.3643 13.1613C57.4091 13.5522 56.5492 14.1518 55.8451 14.9181C55.158 15.714 54.6651 16.6648 54.4069 17.6925C54.0747 18.9013 53.9132 20.1524 53.9275 21.4077C53.8932 22.595 54.0552 23.7796 54.4069 24.9117C54.5587 25.9441 55.0031 26.9086 55.6853 27.6861H55.7511ZM120.32 29.4333C121.092 29.3651 121.842 29.1295 122.519 28.7421C123.204 28.3743 123.752 27.7876 124.08 27.0717C124.521 26.1333 124.728 25.0975 124.681 24.0573C124.707 23.251 124.572 22.4478 124.286 21.6957C124.016 21.0529 123.588 20.4912 123.046 20.0637C122.354 19.632 121.589 19.3389 120.79 19.1997C119.684 18.9849 118.559 18.8884 117.434 18.9117H116.033V14.8797C116.033 14.4765 116.108 14.1885 116.315 14.0637C116.646 13.9404 117 13.8977 117.349 13.9389H119.38C119.885 13.9183 120.392 13.9439 120.893 14.0157C121.231 14.0311 121.557 14.1443 121.833 14.3421C122.109 14.5464 122.319 14.8307 122.435 15.1581C122.62 15.6257 122.78 16.1032 122.914 16.5885H123.788V12.8829H111.606V13.4397C111.681 13.4397 111.728 13.5165 111.925 13.5165C112.068 13.5585 112.202 13.6268 112.32 13.7181C112.41 13.8391 112.476 13.9757 112.518 14.1213C112.518 14.3229 112.593 14.5245 112.593 14.8125V27.7245C112.615 27.9577 112.589 28.1931 112.518 28.4157C112.522 28.4948 112.506 28.5736 112.472 28.6443C112.437 28.7151 112.385 28.7753 112.32 28.8189C112.271 28.8788 112.212 28.9276 112.144 28.9624C112.076 28.9971 112.002 29.0169 111.925 29.0205C111.825 29.0685 111.717 29.0947 111.606 29.0973V29.6253H117.753C118.637 29.5581 119.511 29.5581 120.32 29.4333ZM116.287 28.2141C116.223 28.1504 116.173 28.0742 116.14 27.9901C116.106 27.9059 116.089 27.8156 116.09 27.7245C116.09 27.5229 116.014 27.2349 116.014 26.9085V19.8909H117.415C117.914 19.8372 118.418 19.9009 118.889 20.0774C119.36 20.2537 119.785 20.5381 120.132 20.9085C120.732 21.8671 121.013 22.9989 120.931 24.1341C120.961 24.9317 120.866 25.729 120.649 26.4957C120.52 26.9957 120.275 27.4567 119.934 27.8397C119.64 28.1029 119.303 28.3109 118.938 28.4541C118.545 28.5357 118.145 28.5776 117.744 28.5789C117.349 28.5021 117.03 28.5021 116.804 28.4541C116.616 28.416 116.439 28.3339 116.287 28.2141ZM102.948 29.0301C102.873 29.0301 102.826 28.9533 102.629 28.9533C102.477 28.9318 102.336 28.8601 102.228 28.7493C102.118 28.6384 102.048 28.4943 102.027 28.3389C102.027 28.1373 101.952 27.9357 101.952 27.6477V23.0397H103.588C104.403 23.0367 105.217 22.9693 106.022 22.8381C106.754 22.7156 107.458 22.4586 108.1 22.0797C108.705 21.6782 109.19 21.1133 109.5 20.4477C109.867 19.5721 110.044 18.6255 110.017 17.6733C110.037 16.7908 109.873 15.914 109.538 15.1005C109.231 14.5033 108.777 13.9974 108.222 13.6317C107.645 13.2933 107.004 13.084 106.342 13.0173C105.599 12.9329 104.852 12.8912 104.105 12.8925H97.6375V13.4397C97.7127 13.4397 97.7597 13.5165 97.9571 13.5165C98.1 13.5585 98.2335 13.6268 98.3519 13.7181C98.4412 13.8391 98.5079 13.9757 98.5493 14.1213C98.5493 14.3229 98.6245 14.5245 98.6245 14.8125V27.6477C98.6461 27.8809 98.6207 28.1163 98.5493 28.3389C98.554 28.418 98.538 28.4968 98.5032 28.5675C98.4685 28.6383 98.4168 28.6985 98.3519 28.7421C98.303 28.802 98.2438 28.8508 98.1752 28.8856C98.1075 28.9203 98.0332 28.9401 97.9571 28.9437C97.8565 28.9916 97.7484 29.0179 97.6375 29.0205V29.5485H102.986V29.0205L102.948 29.0301ZM102.008 14.7933C101.995 14.6544 102.022 14.5146 102.084 14.3901C102.099 14.2848 102.141 14.1855 102.206 14.1021C102.26 14.0552 102.323 14.02 102.391 13.9986C102.459 13.9771 102.53 13.9699 102.601 13.9773C102.798 13.9773 102.995 13.9005 103.315 13.9005C103.635 13.9005 104.114 13.9773 104.509 14.0253C104.883 14.1495 105.223 14.3597 105.505 14.6397C105.795 14.9773 106.023 15.3639 106.182 15.7821C106.319 16.3571 106.385 16.9473 106.379 17.5389C106.443 18.6484 106.237 19.7566 105.778 20.7645C105.565 21.1384 105.255 21.4437 104.881 21.6456C104.507 21.8477 104.085 21.9382 103.663 21.9069H102.027V14.8125L102.008 14.7933ZM95.4379 25.7277H94.4039C94.3071 26.2516 94.1755 26.768 94.0091 27.2733C93.9286 27.6173 93.7484 27.9285 93.4921 28.1661C93.3646 28.2818 93.2158 28.3702 93.0544 28.4263C92.8929 28.4824 92.7221 28.5049 92.5521 28.4925C92.0102 28.5676 91.4628 28.5933 90.9165 28.5693C90.4108 28.5954 89.9037 28.5696 89.4031 28.4925C89.0942 28.465 88.7953 28.3666 88.5289 28.2045C88.4357 28.1519 88.3574 28.0757 88.3014 27.9833C88.2455 27.8908 88.2137 27.7851 88.2093 27.6765C88.137 27.3622 88.1117 27.0386 88.1341 26.7165V21.4461H91.0105C91.2925 21.4461 91.5275 21.5229 91.8095 21.5229C92.0784 21.5445 92.3455 21.5862 92.6085 21.6477C92.8516 21.6935 93.0823 21.7917 93.2853 21.9357V19.7757C93.0737 19.903 92.8459 20 92.6085 20.0637C92.3496 20.1452 92.0804 20.1872 91.8095 20.1885C91.5484 20.2544 91.2791 20.2803 91.0105 20.2653H88.1341V14.7165C88.138 14.4684 88.1791 14.2223 88.2563 13.9869C88.3785 13.8621 88.5759 13.8621 88.9331 13.8621H90.7285C91.2342 13.8415 91.7407 13.8671 92.2419 13.9389C92.5793 13.9543 92.9053 14.0675 93.1819 14.2653C93.458 14.4696 93.6675 14.7539 93.7835 15.0813C93.9688 15.5489 94.1285 16.0264 94.2629 16.5117H95.1371V12.9213H83.7819V13.4397C83.8571 13.4397 83.9041 13.5165 84.1015 13.5165C84.2441 13.5585 84.3779 13.6268 84.4963 13.7181C84.5857 13.8391 84.6526 13.9757 84.6937 14.1213C84.6937 14.3229 84.7689 14.5245 84.7689 14.8125V27.6477C84.7908 27.8809 84.7651 28.1163 84.6937 28.3389C84.6983 28.418 84.6825 28.4968 84.6478 28.5675C84.6131 28.6383 84.561 28.6985 84.4963 28.7421C84.4479 28.802 84.3877 28.8508 84.3198 28.8856C84.2518 28.9203 84.1774 28.9401 84.1015 28.9437C84.0013 28.9916 83.8924 29.0179 83.7819 29.0205V29.5485H95.5601C95.4379 29.4813 95.4379 25.7277 95.4379 25.7277ZM77.4651 29.4333C78.2381 29.3651 78.9879 29.1295 79.6647 28.7421C80.3383 28.3469 80.8915 27.7687 81.2627 27.0717C81.7045 26.1333 81.9112 25.0975 81.8643 24.0573C81.8898 23.251 81.7554 22.4478 81.4695 21.6957C81.1984 21.0529 80.7714 20.4912 80.2287 20.0637C79.5515 19.6377 78.8023 19.3447 78.0197 19.1997C76.914 18.9849 75.7893 18.8884 74.6639 18.9117H73.1975V14.8797C73.1975 14.4765 73.2727 14.1885 73.4795 14.0637C73.8099 13.9404 74.164 13.8977 74.5135 13.9389H76.5063C77.012 13.9183 77.5185 13.9439 78.0197 14.0157C78.3571 14.0311 78.6831 14.1443 78.9597 14.3421C79.2358 14.5464 79.4453 14.8307 79.5613 15.1581C79.7466 15.6257 79.9067 16.1032 80.0407 16.5885H80.9149V12.8829H68.6949V13.4397C68.7701 13.4397 68.8171 13.5165 69.0145 13.5165C69.1571 13.5585 69.2908 13.6268 69.4093 13.7181C69.4987 13.8391 69.5656 13.9757 69.6067 14.1213C69.6067 14.3229 69.6819 14.5245 69.6819 14.8125V27.6477C69.701 27.8809 69.6754 28.1157 69.6067 28.3389C69.6113 28.418 69.5955 28.4968 69.5608 28.5675C69.5261 28.6383 69.4739 28.6985 69.4093 28.7421C69.3609 28.802 69.3007 28.8508 69.2328 28.8856C69.1648 28.9203 69.0904 28.9401 69.0145 28.9437C68.9143 28.9916 68.8054 29.0179 68.6949 29.0205V29.6349H74.8425C75.8295 29.5581 76.6285 29.5581 77.4651 29.4333ZM73.4325 28.2141C73.3689 28.1504 73.3185 28.0742 73.2846 27.9901C73.2507 27.9059 73.2338 27.8156 73.2351 27.7245C73.2351 27.5229 73.1599 27.2349 73.1599 26.9085V19.8909H74.5605C75.0594 19.8372 75.5637 19.9009 76.0346 20.0774C76.5055 20.2537 76.9306 20.5381 77.2771 20.9085C77.8781 21.8671 78.1584 22.9989 78.0761 24.1341C78.1063 24.9317 78.011 25.729 77.7941 26.4957C77.6649 26.9957 77.4199 27.4567 77.0797 27.8397C76.7856 28.1029 76.4483 28.3109 76.0833 28.4541C75.6904 28.5357 75.2905 28.5776 74.8895 28.5789C74.4947 28.5021 74.2127 28.5021 73.9495 28.4541C73.7588 28.4245 73.5798 28.3414 73.4325 28.2141ZM53.8711 34.2909H173.665V35.9229H53.8711V34.2909ZM164.114 23.2797C164.398 23.7241 164.712 24.1476 165.054 24.5469C165.336 24.9501 165.656 25.3629 165.929 25.7661C166.194 26.1914 166.486 26.5987 166.803 26.9853C167.122 27.4749 167.404 27.8781 167.677 28.3293C167.925 28.739 168.151 29.162 168.354 29.5965L173.9 29.6733C173.298 29.0589 172.781 28.4541 172.18 27.8397C171.578 27.2253 171.183 26.6973 170.864 26.3709C170.347 25.7565 169.867 25.2285 169.463 24.7389C169.059 24.2493 168.589 23.7213 168.222 23.2701C167.856 22.8189 167.423 22.2525 167.104 21.8013C166.784 21.3501 166.389 20.7453 166.07 20.1693L166.352 19.8429C166.746 19.3149 167.226 18.7869 167.752 18.0861C168.255 17.4099 168.801 16.7684 169.388 16.1661C169.989 15.4749 170.506 14.8989 171.108 14.3325C171.586 13.8791 172.092 13.456 172.621 13.0653H168.786C168.618 13.4876 168.417 13.8954 168.185 14.2845C167.906 14.8214 167.592 15.3379 167.244 15.8301C166.925 16.3581 166.53 16.9725 166.211 17.5869C165.891 18.2013 165.496 18.7293 165.092 19.2573C164.688 19.7853 164.378 20.3133 164.058 20.7261C163.738 21.1389 163.456 21.5421 163.259 21.8685C163.454 22.3915 163.737 22.8756 164.096 23.2989L164.114 23.2797Z" fill="#AEB3CA"/>
<path d="M163.634 29.0295C163.558 29.0295 163.511 28.9527 163.314 28.9527C163.162 28.9312 163.021 28.8595 162.913 28.7486C162.804 28.6377 162.733 28.4936 162.712 28.3383C162.712 28.1367 162.637 27.9351 162.637 27.6471V14.8407C162.616 14.6075 162.641 14.3721 162.712 14.1495C162.708 14.0705 162.724 13.9917 162.758 13.9209C162.793 13.8502 162.845 13.7899 162.91 13.7463C163.028 13.655 163.162 13.5867 163.305 13.5447C163.405 13.4968 163.513 13.4706 163.624 13.4679V12.8535H158.276V13.3815C158.351 13.3815 158.398 13.4583 158.595 13.4583C158.738 13.5003 158.872 13.5686 158.99 13.6599C159.079 13.7809 159.146 13.9175 159.187 14.0631C159.187 14.2647 159.263 14.4663 159.263 14.7543V27.5607C159.284 27.7939 159.259 28.0293 159.187 28.2519C159.192 28.3309 159.176 28.4097 159.141 28.4805C159.107 28.5512 159.055 28.6115 158.99 28.6551C158.942 28.7149 158.882 28.7638 158.813 28.7985C158.746 28.8333 158.671 28.8531 158.595 28.8567C158.495 28.9046 158.386 28.9308 158.276 28.9335V29.4615H163.624L163.634 29.0295ZM128.092 27.5223C128.29 26.5623 128.694 25.2375 129.211 23.5287H134.418L135.133 25.6887C135.43 26.4856 135.669 27.3038 135.847 28.1367C136.013 28.611 136.12 29.1043 136.167 29.6055H140.322C140.124 29.2791 139.927 28.7895 139.645 28.2615C139.266 27.5032 138.951 26.7131 138.705 25.8999L134.945 14.9751C134.784 14.5857 134.676 14.1754 134.625 13.7559C134.625 13.4295 134.55 13.1415 134.503 12.9399H129.803V13.4391C129.878 13.4391 129.925 13.5159 130.123 13.5159C130.265 13.5579 130.399 13.6262 130.517 13.7175C130.607 13.8385 130.673 13.9751 130.715 14.1207V14.4471C130.722 14.8093 130.655 15.1691 130.517 15.5031L127.885 22.1079C127.406 23.3271 126.945 24.3927 126.645 25.2087C126.344 26.0247 125.968 26.7543 125.77 27.2919C125.573 27.8295 125.291 28.3095 125.094 28.6359C124.896 28.9623 124.774 29.2503 124.614 29.5287H127.566C127.772 28.8625 127.931 28.1824 128.045 27.4935L128.092 27.5223ZM131.852 15.6567L134.052 22.3767H129.54L131.852 15.6567ZM146.638 29.0295H146.516C146.441 29.0295 146.394 28.9527 146.197 28.9527C146.044 28.9312 145.903 28.8595 145.795 28.7486C145.686 28.6377 145.616 28.4936 145.595 28.3383C145.595 28.1367 145.52 27.9351 145.52 27.6471V21.2439H151.865V27.6087C151.886 27.8419 151.861 28.0773 151.79 28.2999C151.794 28.3789 151.778 28.4577 151.744 28.5285C151.709 28.5992 151.657 28.6594 151.592 28.7031C151.544 28.7629 151.484 28.8118 151.415 28.8465C151.348 28.8813 151.274 28.9011 151.197 28.9047C151.097 28.9526 150.989 28.9788 150.878 28.9815V29.5095H156.226V28.9911C156.151 28.9911 156.104 28.9143 155.907 28.9143C155.754 28.8928 155.613 28.8211 155.505 28.7102C155.396 28.5993 155.326 28.4552 155.305 28.2999C155.305 28.0983 155.23 27.8967 155.23 27.6087V14.7159C155.208 14.4827 155.234 14.2473 155.305 14.0247C155.3 13.9457 155.316 13.8669 155.351 13.7961C155.386 13.7254 155.438 13.6651 155.503 13.6215C155.621 13.5302 155.755 13.4619 155.897 13.4199C155.998 13.372 156.106 13.3458 156.217 13.3431V12.8535H150.991V13.3815C151.066 13.3815 151.113 13.4583 151.31 13.4583C151.453 13.5003 151.587 13.5686 151.705 13.6599C151.794 13.7809 151.861 13.9175 151.902 14.0631C151.902 14.2647 151.978 14.4663 151.978 14.7543V20.0919H145.698V14.7927C145.677 14.5595 145.702 14.3241 145.774 14.1015C145.769 14.0225 145.785 13.9437 145.82 13.8729C145.854 13.8022 145.906 13.7419 145.971 13.6983C146.089 13.607 146.223 13.5387 146.366 13.4967C146.452 13.4614 146.545 13.4419 146.638 13.4391V12.9111H141.29V13.4391C141.365 13.4391 141.412 13.5159 141.609 13.5159C141.752 13.5579 141.886 13.6262 142.004 13.7175C142.093 13.8385 142.16 13.9751 142.202 14.1207C142.202 14.3223 142.277 14.5239 142.277 14.8119V27.7239C142.296 27.9571 142.27 28.1919 142.202 28.4151C142.206 28.4941 142.19 28.5729 142.156 28.6437C142.121 28.7144 142.069 28.7747 142.004 28.8183C141.956 28.8781 141.896 28.927 141.827 28.9617C141.76 28.9965 141.686 29.0163 141.609 29.0199C141.509 29.0678 141.401 29.094 141.29 29.0967V29.6247H146.638V29.0295ZM42.9376 14.6295C42.618 14.1399 42.2608 13.6695 41.9412 13.1991L23.677 23.9991L14.8128 18.7767C14.6246 19.3475 14.4923 19.936 14.418 20.5335L23.724 25.9959L42.9376 14.6295Z" fill="#AEB3CA"/>
<path d="M23.6771 28.0127L14.1737 22.4255C14.1093 22.7734 14.0841 23.1278 14.0985 23.4815C14.0471 25.6244 14.4161 27.7559 15.1836 29.751C15.9511 31.746 17.1017 33.564 18.5675 35.098C20.0332 36.6321 21.7848 37.8512 23.7189 38.6835C25.6529 39.5159 27.7305 39.9447 29.8294 39.9447C31.9282 39.9447 34.0058 39.5159 35.9398 38.6835C37.8739 37.8512 39.6254 36.6321 41.0912 35.098C42.5571 33.564 43.7076 31.746 44.4751 29.751C45.2426 27.7559 45.6116 25.6244 45.5603 23.4815C45.5782 20.9426 44.9877 18.4378 43.8401 16.1855L23.6771 28.0127Z" fill="#AEB3CA"/>
<path d="M40.73 11.8647C40.2506 11.3751 39.79 11.0487 39.3294 10.6455L23.6784 19.8903L16.1584 15.5223C15.8764 16.0119 15.6414 16.5399 15.3594 17.0679L23.622 21.9159L40.73 11.8647Z" fill="#AEB3CA"/>
<path d="M37.7402 9.59965C37.1351 9.23729 36.5071 8.91658 35.8602 8.63965L23.6402 15.8589L18.1694 12.6812C17.7746 13.0844 17.455 13.574 17.0508 14.0252L23.6308 17.8653L37.7402 9.59965Z" fill="#AEB3CA"/>
</g>
</svg>
