<?xml version="1.0" encoding="UTF-8"?>
<svg fill="none" viewBox="0 0 192 48" xmlns="http://www.w3.org/2000/svg">
<g clip-path="url(#a)" opacity=".5">
<path d="m38.687 16.32c-0.288-0.48-0.288-0.96-0.192-1.44s0.48-0.864 0.864-1.152l8.64-4.992c0.096 0 0.288-0.096 0.48-0.096s0.384 0.096 0.48 0.096l8.64 4.896c0.384 0.288 0.768 0.672 0.864 1.152s0.096 0.96-0.192 1.44c-0.288 0.384-0.672 0.768-1.152 0.864-0.48 0.192-0.96 0.192-1.44-0.096l-7.2-4.128-7.2 4.128c-0.192 0.096-0.48 0.192-0.672 0.288h-0.768c-0.288-0.096-0.48-0.192-0.672-0.288-0.192-0.288-0.288-0.48-0.48-0.672z" fill="#555F8C"/>
<path d="m56.546 19.104h-16.032c-0.288 0-0.48 0.096-0.672 0.288s-0.288 0.384-0.288 0.672v9.216c0 0.576 0.192 1.152 0.672 1.536 0.384 0.384 0.96 0.672 1.536 0.672s1.152-0.192 1.536-0.672c0.384-0.384 0.672-0.96 0.672-1.536v-6.432h2.592v6.432c0 0.576 0.192 1.152 0.672 1.536 0.384 0.384 0.96 0.672 1.536 0.672s1.152-0.192 1.536-0.672c0.384-0.384 0.672-0.96 0.672-1.536v-6.432h2.592v6.432c0 0.576 0.192 1.152 0.672 1.536 0.384 0.384 0.96 0.672 1.536 0.672s1.152-0.192 1.536-0.672c0.384-0.384 0.672-0.96 0.672-1.536v-9.216c-0.096-0.288-0.192-0.48-0.384-0.672-0.576-0.192-0.768-0.288-1.056-0.288zm-46.176 7.296c-0.192-0.48-0.57604-0.864-0.96004-1.152-0.288-0.192-0.576-0.384-0.96-0.48 0.48-0.192 0.864-0.576 1.152-1.056s0.384-0.96 0.384-1.44 0-3.264-3.84-3.264h-5.856s-0.096 0-0.096 0.096l-0.096 0.096v11.904s0 0.096 0.096 0.096l0.096 0.096h6.144c3.936 0 4.128-2.88 4.128-3.552 0.096-0.384 0-0.864-0.192-1.344zm-6.624-4.512h1.248c0.288 0 0.576 0.096 0.96 0.192 0.192 0.096 0.288 0.192 0.384 0.288 0.096 0.192 0.096 0.288 0.096 0.48 0 0.576-0.384 0.96-1.344 0.96h-1.344v-1.92zm1.44 6.72h-1.44v-2.016h1.44c1.056 0 1.632 0.48 1.632 0.96 0 0.768-0.48 1.056-1.632 1.056zm121.06-10.56c0.768 0 1.44-0.096 2.112-0.384s1.248-0.768 1.632-1.44l0.096-0.096v-0.096s0-0.096-0.096-0.096l-0.096-0.096-1.824-0.864h-0.288c-0.096 0-0.192 0.096-0.192 0.192-0.192 0.192-0.384 0.384-0.672 0.576-0.288 0.096-0.576 0.192-0.768 0.192s-0.576-0.096-0.768-0.192c-0.288-0.096-0.48-0.288-0.672-0.576-0.096-0.192-0.288-0.288-0.384-0.096l-1.824 0.864c-0.096 0.096-0.096 0.096-0.096 0.192v0.288c0.384 0.576 0.96 1.152 1.632 1.44 0.768 0.192 1.44 0.288 2.208 0.192v0zm-93.696 4.032c0.48 0 0.96 0.096 1.344 0.288s0.768 0.48 1.056 0.864l0.096 0.096h0.192s0.096 0 0.096-0.096l1.728-2.208c0.096-0.096 0.096-0.192 0.096-0.288s0-0.192-0.096-0.288c-1.344-1.056-2.976-1.728-4.608-1.728-0.864 0-1.728 0.096-2.496 0.384s-1.536 0.768-2.112 1.344-1.056 1.344-1.344 2.112-0.384 1.632-0.384 2.496c0 2.496 1.536 6.336 6.24 6.336 1.728 0 3.36-0.576 4.608-1.728 0.096-0.096 0.096-0.192 0.096-0.288s0-0.192-0.096-0.288l-1.44-1.728-0.096-0.096h-0.192s-0.096 0-0.096 0.096c-0.288 0.384-0.672 0.576-1.152 0.768-0.384 0.192-0.864 0.288-1.344 0.288-1.248 0-2.496-1.056-2.496-3.264-0.192-1.728 0.768-3.072 2.4-3.072zm-8.16 0.768c-0.288-0.768-0.768-1.536-1.344-2.112s-1.344-1.056-2.112-1.344-1.632-0.48-2.496-0.384c-0.864 0-1.728 0.096-2.496 0.384s-1.536 0.768-2.112 1.344-1.056 1.344-1.344 2.112-0.384 1.632-0.384 2.496c0 2.592 1.536 6.432 6.24 6.432s6.24-3.84 6.24-6.432c0.192-0.864 0.096-1.728-0.192-2.496zm-5.952 5.76c-1.248 0-2.592-1.056-2.592-3.36 0-1.92 0.96-3.36 2.592-3.36 1.536 0 2.496 1.44 2.496 3.36 0 2.304-1.248 3.36-2.496 3.36zm80.256-9.504h-3.168s-0.096 0-0.096 0.096l-0.096 0.096v4.416h-3.648v-4.416s0-0.096-0.096-0.096l-0.096-0.096h-3.264s-0.096 0-0.096 0.096l-0.096 0.096v11.904s0 0.096 0.096 0.096l0.096 0.096h3.264s0.096 0 0.096-0.096l0.096-0.096v-4.608h3.648v4.608s0 0.096 0.096 0.096l0.096 0.096h3.264s0.096 0 0.096-0.096l0.096-0.096v-11.808c0.096-0.192-0.096-0.288-0.288-0.288zm32.736 0h-3.456c-0.096 0-0.096 0.096-0.096 0.192l-3.456 6.336v-6.336s0-0.096-0.096-0.096l-0.096-0.096h-3.264s-0.096 0-0.096 0.096l-0.096 0.096v11.808s0 0.096 0.096 0.096l0.096 0.096h3.36c0.096 0 0.096 0 0.192-0.096 0.096 0 0.096-0.096 0.096-0.096l3.456-6.336v6.336s0 0.096 0.096 0.096l0.096 0.096h3.264s0.096 0 0.096-0.096l0.096-0.096v-11.808s0-0.096-0.096-0.096l-0.096-0.096h-0.096zm-59.52 3.744c-0.288-0.768-0.768-1.536-1.344-2.112s-1.344-1.056-2.112-1.344-1.632-0.48-2.496-0.384c-0.864 0-1.728 0.096-2.496 0.384s-1.536 0.768-2.112 1.344-1.056 1.344-1.344 2.112-0.384 1.632-0.384 2.496c0 2.592 1.536 6.432 6.24 6.432s6.24-3.84 6.24-6.432c0.288-0.864 0.096-1.728-0.192-2.496zm-5.856 5.76c-1.248 0-2.592-1.056-2.592-3.36 0-1.92 0.96-3.36 2.592-3.36s2.592 1.44 2.592 3.36c-0.096 2.304-1.44 3.36-2.592 3.36zm51.36-9.504h-3.168s-0.096 0-0.096 0.096l-0.096 0.096v11.904s0 0.096 0.096 0.096l0.096 0.096h3.264s0.096 0 0.096-0.096l0.096-0.096v-11.904s0-0.096-0.096-0.096l-0.096-0.096h-0.096zm-9.888 4.512h-1.824v-4.224s0-0.096-0.096-0.096l-0.096-0.096h-3.264s-0.096 0-0.096 0.096l-0.096 0.096v11.904s0 0.096 0.096 0.096l0.096 0.096h5.376c3.168 0 4.896-1.44 4.896-4.032-0.096-2.592-1.824-3.84-4.992-3.84zm0.672 4.8c-0.288 0.192-0.672 0.288-0.96 0.288h-1.44v-2.208h1.44c0.288 0 0.672 0.096 0.96 0.192 0.192 0.096 0.288 0.192 0.384 0.384s0.096 0.384 0.096 0.576c-0.096 0.288-0.192 0.576-0.48 0.768zm-23.616-9.408h-3.072s-0.096 0-0.096 0.096l-0.096 0.096v5.184c-2.976 0.48-3.456-0.576-3.456-1.44v-3.648s0-0.096-0.096-0.096l-0.096-0.096h-3.168c-0.096 0-0.192 0-0.192 0.096s-0.096 0.096-0.096 0.192v2.4c0 1.344 0.096 2.784 0.096 3.264 0.288 1.632 1.728 2.304 3.264 2.496 1.248 0.096 2.592 0 3.744-0.288v3.936s0 0.096 0.096 0.096l0.096 0.096h3.264s0.096 0 0.096-0.096l0.096-0.096v-11.808c0-0.096-0.096-0.192-0.096-0.288-0.096 0-0.192 0-0.288-0.096v0zm93.312 0h-3.168s-0.096 0-0.096 0.096l-0.096 0.096v4.416h-3.648v-4.416s0-0.096-0.096-0.096l-0.096-0.096h-3.264s-0.096 0-0.096 0.096l-0.096 0.096v11.904s0 0.096 0.096 0.096l0.096 0.096h3.264s0.096 0 0.096-0.096l0.096-0.096v-4.608h3.648v4.608s0 0.096 0.096 0.096l0.096 0.096h3.264s0.096 0 0.096-0.096l0.096-0.096v-11.808s0-0.096-0.096-0.096l-0.096-0.096s-0.096 0-0.096-0.096zm-30.24 4.8h-2.688v-1.824h5.76s0.096 0 0.096-0.096l0.096-0.096v-2.304s0-0.096-0.096-0.096l-0.096-0.096h-9.312s-0.096 0-0.096 0.096l-0.096 0.096v11.904s0 0.096 0.096 0.096l0.096 0.096h6.144c3.936 0 4.224-2.88 4.224-3.84s-0.192-3.936-4.128-3.936zm-1.248 4.8h-1.44v-2.112h1.44c1.056 0 1.536 0.384 1.632 1.056 0 0.672-0.576 1.056-1.632 1.056zm41.76-3.36 3.744-5.664c0-0.096 0.096-0.096 0.096-0.192v-0.096s0-0.096-0.096-0.096l-0.096-0.096h-3.552c-0.096 0-0.096 0.096-0.096 0.192l-3.168 5.184v-5.184s0-0.096-0.096-0.096l-0.096-0.096h-3.264s-0.096 0-0.096 0.096l-0.096 0.096v11.808s0 0.096 0.096 0.096l0.096 0.096h3.264s0.096 0 0.096-0.096l0.096-0.096v-5.184l3.168 5.28c0 0.096 0.096 0.096 0.096 0.096 0.096 0 0.096 0.096 0.192 0.096h3.36s0.096 0 0.096-0.096l0.096-0.096v-0.096c0-0.096 0-0.192-0.096-0.192l-3.744-5.664zm-22.752 5.76-4.416-11.616c0-0.096-0.096-0.096-0.096-0.192-0.096 0-0.096-0.096-0.192-0.096h-3.264c-0.096 0-0.192 0-0.192 0.096-0.096 0-0.096 0.096-0.096 0.192l-4.512 11.616v0.288s0 0.096 0.096 0.096l0.096 0.096h3.264c0.096 0 0.192 0 0.192-0.096 0.096 0 0.096-0.096 0.096-0.192l0.48-1.824h3.936l0.576 1.824c0 0.096 0.096 0.096 0.096 0.192 0.096 0 0.096 0.096 0.192 0.096h3.36s0.096 0 0.096-0.096l0.096-0.096v-0.096l0.192-0.192zm-7.488-4.416 1.056-3.744 1.152 3.744h-2.208z" fill="#AEB3CA"/>
</g>
<defs>
<clipPath id="a">
<rect width="192" height="48" fill="#fff"/>
</clipPath>
</defs>
</svg>
