<svg width="68" height="68" viewBox="0 0 68 68" fill="none" xmlns="http://www.w3.org/2000/svg">
<rect width="68" height="68" rx="16" fill="#051035"/>
<g clip-path="url(#clip0)">
<path fill-rule="evenodd" clip-rule="evenodd" d="M26.5471 24.9297H30.0625H33.5779C33.913 24.9297 34.2263 24.769 34.4271 24.5008C35.9633 22.4498 36.7422 20.1812 36.7422 17.7578V17.0547C36.7422 16.4722 36.27 16 35.6875 16C33.7342 16 31.1864 17.2651 30.0625 17.8806C28.9386 17.2651 26.3908 16 24.4375 16C23.855 16 23.3828 16.4722 23.3828 17.0547V17.7578C23.3828 20.1812 24.1617 22.4498 25.6979 24.5008C25.8987 24.769 26.212 24.9297 26.5471 24.9297ZM30.8799 40.4314V43.4175C31.4187 43.1267 31.7388 42.5898 31.8243 42.0808C31.8855 41.7172 31.9105 40.8445 30.8799 40.4314ZM28.8334 37.5557C28.6123 37.3823 28.5172 37.0168 28.5911 36.6244C28.647 36.3283 28.8142 35.9846 29.1212 35.7699V37.755C29.0171 37.6899 28.9199 37.6235 28.8334 37.5557ZM35.8281 42.6015V37.3688C35.8281 35.9072 36.8794 34.6765 38.3279 34.4423C39.077 34.3213 39.7286 33.854 40.0871 33.1873C38.5762 31.0977 36.7975 29.1517 35.0339 27.355C34.8357 27.1529 34.5643 27.0391 34.2812 27.0391H25.8438C25.5606 27.0391 25.2894 27.1529 25.0911 27.355C20.5956 31.9351 16 37.4843 16 43.9141L16.0001 43.9897C16.0099 48.4066 19.6627 52 24.143 52H35.982C37.2347 52 38.4225 51.7189 39.4842 51.2176C37.1984 49.01 35.8281 45.9271 35.8281 42.6015ZM33.5569 42.3723C33.4227 43.1702 33.0213 43.9106 32.4265 44.4571C31.9817 44.8657 31.4565 45.1454 30.879 45.2868V45.9531C30.879 46.4386 30.4855 46.832 30.0001 46.832C29.5146 46.832 29.1212 46.4386 29.1212 45.9531V45.369C28.3848 45.3081 27.779 45.1139 26.9171 44.5501C26.5109 44.2844 26.397 43.7397 26.6627 43.3335C26.9285 42.9272 27.4731 42.8133 27.8794 43.0791C28.3777 43.4051 28.6958 43.5442 29.1212 43.6007V39.7396C28.5381 39.4734 28.104 39.2178 27.7484 38.9388C27.0057 38.3562 26.6665 37.3446 26.8636 36.2989C27.0786 35.1584 27.8721 34.2511 28.9347 33.931C28.9975 33.9121 29.0596 33.8948 29.1212 33.8788V33.2969C29.1212 32.8114 29.5146 32.418 30.0001 32.418C30.4855 32.418 30.879 32.8114 30.879 33.2969V33.7814C31.7607 33.9288 32.3833 34.3612 32.6836 34.7057C33.0025 35.0717 32.9644 35.6269 32.5984 35.9458C32.2342 36.2631 31.6825 36.2268 31.3629 35.8657C31.342 35.8444 31.1841 35.6914 30.879 35.5862V38.5605C31.045 38.6223 31.211 38.6821 31.3739 38.7397C32.9758 39.3059 33.8327 40.7318 33.5569 42.3723ZM47.9269 34.0621C48.587 35.3867 49.8409 36.2934 51.273 36.5249C51.6901 36.5923 52 36.9464 52 37.369V42.6017C52 46.8415 49.2938 50.5928 45.3029 51.9452C45.0865 52.0185 44.851 52.0185 44.6346 51.9452C40.6437 50.5927 37.9375 46.8415 37.9375 42.6017V37.369C37.9375 36.9464 38.2474 36.5923 38.6645 36.5249C40.0966 36.2934 41.3505 35.3868 42.0106 34.0621C42.1003 33.882 42.287 33.7708 42.4882 33.7708H47.4493C47.6505 33.7708 47.8372 33.882 47.9269 34.0621ZM44.7202 45.6458L48.6976 41.6683C49.1095 41.2565 49.1095 40.5887 48.6978 40.1768C48.2859 39.7649 47.6181 39.7649 47.2062 40.1768L43.9745 43.4084L42.7315 42.1655C42.3197 41.7536 41.6518 41.7536 41.24 42.1655C40.8281 42.5774 40.8281 43.2452 41.24 43.657L43.2287 45.6458C43.4346 45.8518 43.7046 45.9547 43.9745 45.9547C44.2443 45.9547 44.5142 45.8517 44.7202 45.6458Z" fill="url(#paint0_linear)"/>
</g>
<defs>
<linearGradient id="paint0_linear" x1="49.375" y1="50.125" x2="16" y2="15.25" gradientUnits="userSpaceOnUse">
<stop stop-color="#097CEF"/>
<stop offset="1" stop-color="#0746DE"/>
</linearGradient>
<clipPath id="clip0">
<rect width="36" height="36" fill="white" transform="translate(16 16)"/>
</clipPath>
</defs>
</svg>
