<svg width="68" height="68" viewBox="0 0 68 68" fill="none" xmlns="http://www.w3.org/2000/svg">
<rect width="68" height="68" rx="16" fill="#051035"/>
<g clip-path="url(#clip0)">
<path fill-rule="evenodd" clip-rule="evenodd" d="M38.496 42.8297V43.8844V44.9391H37.4413H27.9081C27.9156 44.8384 27.9206 44.737 27.9206 44.6344C27.9206 42.3887 26.0937 40.5618 23.8481 40.5618C21.6024 40.5618 19.7754 42.3888 19.7754 44.6344C19.7754 44.737 19.7805 44.8384 19.788 44.9391H17.0547C16.4722 44.9391 16 44.4669 16 43.8844V22.4565C16 21.8741 16.4722 21.4019 17.0547 21.4019H37.4413C38.0238 21.4019 38.496 21.8741 38.496 22.4565V42.8297ZM40.6055 32.6971H51.6571L48.7361 25.4589C48.5752 25.06 48.1882 24.7988 47.7581 24.7988H40.6055V32.6971ZM40.6055 34.8063V42.6359C41.3052 41.3988 42.6323 40.5616 44.152 40.5616C46.3976 40.5616 48.2246 42.3885 48.2246 44.6342C48.2246 44.7368 48.2195 44.8382 48.212 44.9389H50.9454C51.5279 44.9389 52.0001 44.4666 52.0001 43.8842V34.8063H40.6055ZM42.1875 44.6343C42.1875 45.7168 43.0682 46.5975 44.1507 46.5975C45.2332 46.5975 46.114 45.7168 46.114 44.6343C46.114 43.5518 45.2333 42.671 44.1507 42.671C43.0682 42.671 42.1875 43.5518 42.1875 44.6343ZM23.849 42.671C24.9315 42.671 25.8122 43.5518 25.8122 44.6343C25.8122 45.7168 24.9315 46.5975 23.849 46.5975C22.7665 46.5975 21.8857 45.7168 21.8857 44.6343C21.8857 43.5517 22.7665 42.671 23.849 42.671Z" fill="url(#paint0_linear)"/>
</g>
<defs>
<linearGradient id="paint0_linear" x1="49.3751" y1="45.2851" x2="27.7543" y2="13.0042" gradientUnits="userSpaceOnUse">
<stop stop-color="#097CEF"/>
<stop offset="1" stop-color="#0746DE"/>
</linearGradient>
<clipPath id="clip0">
<rect width="36" height="36" fill="white" transform="translate(16 16)"/>
</clipPath>
</defs>
</svg>
