<svg width="68" height="68" viewBox="0 0 68 68" fill="none" xmlns="http://www.w3.org/2000/svg">
<rect width="68" height="68" rx="16" fill="#051035"/>
<path fill-rule="evenodd" clip-rule="evenodd" d="M28.9727 17.3008C29.4192 17.7473 30.1433 17.7473 30.5898 17.3008L31.8906 16V27.7422C31.8906 28.3247 31.4184 28.7969 30.8359 28.7969H24.5078C23.9253 28.7969 23.4531 28.3247 23.4531 27.7422V16L24.7539 17.3008C25.2005 17.7473 25.9245 17.7473 26.3711 17.3008L27.6719 16L28.9727 17.3008ZM43.5625 33.0156H37.1641V37.2344H43.5625V33.0156ZM41.3828 43.5625H48.8359C50.5807 43.5625 52 44.9818 52 46.7266V50.9453C52 51.5283 51.5283 52 50.9453 52H17.0547C16.4717 52 16 51.5283 16 50.9453V46.7266C16 44.9818 17.4193 43.5625 19.1641 43.5625H26.6172V46.7266C26.6172 48.4713 28.0365 49.8906 29.7812 49.8906H38.2188C39.9635 49.8906 41.3828 48.4713 41.3828 46.7266V43.5625ZM28.7266 46.7266V43.5625H39.2734V46.7266C39.2734 47.3085 38.8007 47.7812 38.2188 47.7812H29.7812C29.1993 47.7812 28.7266 47.3085 28.7266 46.7266ZM46.7266 26.6875H34V27.7422C34 29.4869 32.5807 30.9062 30.8359 30.9062H24.5078C22.7631 30.9062 21.3438 29.4869 21.3438 27.7422V26.6875C19.599 26.6875 18.1094 28.1068 18.1094 29.8516V41.4531H49.8906V29.8516C49.8906 28.1068 48.4713 26.6875 46.7266 26.6875ZM23.4531 39.3438C22.8702 39.3438 22.3984 38.872 22.3984 38.2891C22.3984 37.7061 22.8702 37.2344 23.4531 37.2344H25.5625C26.1455 37.2344 26.6172 37.7061 26.6172 38.2891C26.6172 38.872 26.1455 39.3438 25.5625 39.3438H23.4531ZM23.4531 35.125C22.8702 35.125 22.3984 34.6533 22.3984 34.0703C22.3984 33.4874 22.8702 33.0156 23.4531 33.0156H25.5625C26.1455 33.0156 26.6172 33.4874 26.6172 34.0703C26.6172 34.6533 26.1455 35.125 25.5625 35.125H23.4531ZM29.7812 39.3438C29.1983 39.3438 28.7266 38.872 28.7266 38.2891C28.7266 37.7061 29.1983 37.2344 29.7812 37.2344H31.8906C32.4736 37.2344 32.9453 37.7061 32.9453 38.2891C32.9453 38.872 32.4736 39.3438 31.8906 39.3438H29.7812ZM29.7812 35.125C29.1983 35.125 28.7266 34.6533 28.7266 34.0703C28.7266 33.4874 29.1983 33.0156 29.7812 33.0156H31.8906C32.4736 33.0156 32.9453 33.4874 32.9453 34.0703C32.9453 34.6533 32.4736 35.125 31.8906 35.125H29.7812ZM45.6719 38.2891C45.6719 38.872 45.2001 39.3438 44.6172 39.3438H36.1094C35.5264 39.3438 35.0547 38.872 35.0547 38.2891V31.9609C35.0547 31.378 35.5264 30.9062 36.1094 30.9062H44.6172C45.2001 30.9062 45.6719 31.378 45.6719 31.9609V38.2891ZM37.1641 16H47.7812C48.9463 16 49.8906 16.9444 49.8906 18.1094V20.3594C49.8906 21.5242 48.9463 22.4688 47.7812 22.4688H45.6719V24.5781H39.2734V22.4688H37.1641C35.9991 22.4688 35.0547 21.5242 35.0547 20.3594V18.1094C35.0547 16.9444 35.9991 16 37.1641 16Z" fill="url(#paint0_linear)"/>
<defs>
<linearGradient id="paint0_linear" x1="49.375" y1="50.1248" x2="16.0002" y2="15.2498" gradientUnits="userSpaceOnUse">
<stop stop-color="#097CEF"/>
<stop offset="1" stop-color="#0746DE"/>
</linearGradient>
</defs>
</svg>
