<svg width="68" height="68" viewBox="0 0 68 68" fill="none" xmlns="http://www.w3.org/2000/svg">
<rect width="68" height="68" rx="16" fill="#051035"/>
<path fill-rule="evenodd" clip-rule="evenodd" d="M49.238 49.8796C49.6984 49.8822 50.1603 49.8858 50.6254 49.8907C51.2078 49.8968 51.675 50.374 51.6689 50.9564C51.6628 51.5351 51.1917 52 50.6145 52L50.6031 51.9999C49.8464 51.992 41.8144 52 41.8144 52V44.4582C41.8144 43.8757 41.3421 43.4035 40.7597 43.4035H27.2413C26.6589 43.4035 26.1866 43.8757 26.1866 44.4582V52C26.1866 52 18.1446 51.9899 17.4009 51.9999L17.3865 52C16.8105 52 16.3399 51.5371 16.3321 50.9594C16.3244 50.377 16.7902 49.8986 17.3726 49.8908C17.834 49.8846 18.2981 49.8809 18.763 49.8784V17.0547C18.763 16.4722 19.2352 16 19.8177 16H24.1033V28.3476C24.1033 28.9301 24.5755 29.4023 25.158 29.4023H42.843C43.4254 29.4023 43.8977 28.9301 43.8977 28.3476V16H48.1833C48.7658 16 49.238 16.4722 49.238 17.0547V49.8796ZM31.7327 39.8684C32.3152 39.8684 32.7874 39.3962 32.7874 38.8137V33.6452C32.7874 33.0627 32.3152 32.5905 31.7327 32.5905H26.5642C25.9817 32.5905 25.5095 33.0627 25.5095 33.6452V38.8137C25.5095 39.3962 25.9817 39.8684 26.5642 39.8684H31.7327ZM36.2682 39.8684H41.4367C42.0193 39.8684 42.4914 39.3962 42.4914 38.8137V33.6452C42.4914 33.0627 42.0192 32.5905 41.4367 32.5905H36.2682C35.6857 32.5905 35.2135 33.0627 35.2135 33.6452V38.8137C35.2135 39.3962 35.6857 39.8684 36.2682 39.8684ZM41.7895 27.293H26.2139V16H41.7895V27.293ZM35.0564 23.0528H36.2126C36.795 23.0528 37.2673 22.5805 37.2673 21.9981C37.2673 21.4156 36.795 20.9434 36.2126 20.9434H35.0564V19.7872C35.0564 19.2047 34.5842 18.7325 34.0017 18.7325C33.4193 18.7325 32.9471 19.2047 32.9471 19.7872V20.9434H31.7908C31.2084 20.9434 30.7362 21.4156 30.7362 21.9981C30.7362 22.5805 31.2084 23.0528 31.7908 23.0528H32.9471V24.209C32.9471 24.7915 33.4193 25.2637 34.0017 25.2637C34.5842 25.2637 35.0564 24.7915 35.0564 24.209V23.0528ZM28.2949 45.5126H32.9447V51.8918C32.9447 51.9282 32.9466 51.9642 32.9502 51.9997H28.2949V45.5126ZM39.705 45.5126H35.0553V51.8918C35.0553 51.9282 35.0535 51.9642 35.0498 51.9997H39.705V45.5126ZM30.6793 34.6998H27.6201V37.759H30.6793V34.6998ZM37.3232 34.6998H40.3824V37.759H37.3232V34.6998Z" fill="url(#paint0_linear)"/>
<defs>
<linearGradient id="paint0_linear" x1="49.0923" y1="50.1248" x2="15.696" y2="15.8701" gradientUnits="userSpaceOnUse">
<stop stop-color="#097CEF"/>
<stop offset="1" stop-color="#0746DE"/>
</linearGradient>
</defs>
</svg>
