<svg width="68" height="68" viewBox="0 0 68 68" fill="none" xmlns="http://www.w3.org/2000/svg">
<rect width="68" height="68" rx="16" fill="#051035"/>
<path fill-rule="evenodd" clip-rule="evenodd" d="M25.9447 28.1236L27.4156 38.0086V50.9453V52H17.0547C16.4722 52 16 51.5278 16 50.9453V37.9305C16 37.8786 16.0039 37.8268 16.0115 37.7754L17.4822 27.8903V22.8879C17.0351 22.7656 16.7061 22.3575 16.7061 21.8716C16.7061 21.2891 17.1783 20.8169 17.7607 20.8169H20.8924V18.9012C20.8924 17.3015 22.1929 16 23.7915 16H42.4125C42.995 16 43.4672 16.4722 43.4672 17.0547C43.4672 17.6372 42.995 18.1094 42.4125 18.1094H23.7915C23.356 18.1094 23.0017 18.4646 23.0017 18.9012V20.8169H25.7977C26.0186 20.8169 26.2234 20.885 26.3928 21.0011C26.6702 21.1911 26.8524 21.51 26.8524 21.8716C26.8524 22.408 26.4516 22.8499 25.9333 22.9166V27.8903V27.9684C25.9333 28.0203 25.9372 28.0723 25.9447 28.1236ZM36.1105 47.1834C35.528 47.1834 35.0558 46.7112 35.0558 46.1287V40.664C35.0558 40.0815 35.528 39.6093 36.1105 39.6093H51.9984V27.3189C51.9984 26.9328 51.7875 26.5776 51.4484 26.3928C51.1094 26.208 50.6965 26.2233 50.3721 26.4325L42.1095 31.7614V27.33C42.1095 26.944 41.8987 26.5889 41.56 26.4041C41.2211 26.2192 40.8084 26.2343 40.4839 26.4432L32.2208 31.7632V27.33C32.2208 26.944 32.01 26.5889 31.6713 26.4041C31.3324 26.2192 30.9197 26.2343 30.5952 26.4432L28.0682 28.0701L29.5123 37.7752C29.5199 37.8266 29.5237 37.8785 29.5237 37.9304V51.9998H50.9437C51.5262 51.9998 51.9984 51.5276 51.9984 50.9452V47.1834H36.1105ZM45.2751 41.719H52V45.0744H45.2751V41.719ZM37.1668 41.719H43.1657V45.0744H37.1668V41.719ZM50.9453 18.1094H47.2389C46.6564 18.1094 46.1842 17.6372 46.1842 17.0547C46.1842 16.4722 46.6564 16 47.2389 16H50.9453C51.5278 16 52 16.4722 52 17.0547C52 17.6372 51.5278 18.1094 50.9453 18.1094Z" fill="url(#paint0_linear)"/>
<defs>
<linearGradient id="paint0_linear" x1="49.375" y1="50.1248" x2="16.0002" y2="15.2498" gradientUnits="userSpaceOnUse">
<stop stop-color="#097CEF"/>
<stop offset="1" stop-color="#0746DE"/>
</linearGradient>
</defs>
</svg>
