<svg width="68" height="68" viewBox="0 0 68 68" fill="none" xmlns="http://www.w3.org/2000/svg">
<rect width="68" height="68" rx="16" fill="#051035"/>
<g clip-path="url(#clip0)">
<path fill-rule="evenodd" clip-rule="evenodd" d="M35.0284 20.2988V18.1094H36.4745C37.0569 18.1094 37.5292 17.6372 37.5292 17.0547C37.5292 16.4722 37.0569 16 36.4745 16H33.9737C33.3912 16 32.919 16.4722 32.919 17.0547V20.2988L25.3078 29.2358H42.6395L35.0284 20.2988ZM16 30.2903C16 29.7078 16.4722 29.2356 17.0547 29.2356H25.3078V35.5813H16V30.2903ZM50.9455 29.2356H42.6396V35.5813H52.0002V30.2903C52.0002 29.7078 51.528 29.2356 50.9455 29.2356ZM16 37.6907H25.3078V51.9998H17.0547C16.4722 51.9998 16 51.5276 16 50.9451V37.6907ZM42.6396 37.6907H42.6661H52.0002V50.9451C52.0002 51.5276 51.528 51.9998 50.9455 51.9998H42.6396V37.6907ZM35.5252 52V45.9154H32.4219V52H35.5252ZM40.5299 31.345H27.417V51.9998H30.3125V44.8605C30.3125 44.278 30.7847 43.8058 31.3672 43.8058H36.5798C37.1623 43.8058 37.6345 44.278 37.6345 44.8605V51.9998H40.53V31.345H40.5299ZM33.9735 40.5625C31.8966 40.5625 30.207 38.8735 30.207 36.7974C30.207 34.7213 31.8966 33.0323 33.9735 33.0323C36.0504 33.0323 37.74 34.7213 37.74 36.7974C37.74 38.8735 36.0504 40.5625 33.9735 40.5625ZM35.6307 36.7972C35.6307 37.7116 34.8887 38.4529 33.9735 38.4529C33.0583 38.4529 32.3164 37.7116 32.3164 36.7972C32.3164 35.8828 33.0583 35.1415 33.9735 35.1415C34.8887 35.1415 35.6307 35.8828 35.6307 36.7972Z" fill="url(#paint0_linear)"/>
</g>
<defs>
<linearGradient id="paint0_linear" x1="49.3752" y1="50.1248" x2="16.0004" y2="15.2497" gradientUnits="userSpaceOnUse">
<stop stop-color="#097CEF"/>
<stop offset="1" stop-color="#0746DE"/>
</linearGradient>
<clipPath id="clip0">
<rect width="36" height="36" fill="white" transform="translate(16 16)"/>
</clipPath>
</defs>
</svg>
