<svg width="142" height="142" viewBox="0 0 142 142" fill="none" xmlns="http://www.w3.org/2000/svg">
<path fill-rule="evenodd" clip-rule="evenodd" d="M97.75 68.75C97.75 84.7663 84.7663 97.75 68.75 97.75C52.7337 97.75 39.75 84.7663 39.75 68.75C39.75 52.7337 52.7337 39.75 68.75 39.75C84.7663 39.75 97.75 52.7337 97.75 68.75ZM103.75 68.75C103.75 88.08 88.08 103.75 68.75 103.75C49.42 103.75 33.75 88.08 33.75 68.75C33.75 49.42 49.42 33.75 68.75 33.75C88.08 33.75 103.75 49.42 103.75 68.75ZM76.1002 62.8736L76.1003 62.8734C76.1148 62.823 76.1324 62.7621 76.1572 62.6866C76.107 62.6866 76.0596 62.6881 76.0148 62.6895L76.0147 62.6895C75.8895 62.6934 75.7842 62.6967 75.6904 62.665C75.6113 62.6566 75.5322 62.649 75.4532 62.6413C75.1298 62.6102 74.8091 62.5793 74.5022 62.4928C72.5713 61.8899 71.192 59.7797 72.6137 57.5619C74.0141 55.4087 76.9636 54.0737 79.7432 55.258C81.568 56.0331 82.7775 57.4542 83.6263 59.2199C83.8597 59.6936 83.8172 59.7367 83.3929 60.0596C82.9827 60.3683 82.5724 60.6745 82.1622 60.9807L82.162 60.9809C81.3416 61.5933 80.5212 62.2057 79.7008 62.8373C79.4037 63.0526 79.1279 63.3325 78.8945 63.6124C78.7247 63.8278 78.7672 64 78.9581 64.1938C79.1915 64.4307 79.4674 64.5168 79.7857 64.5383C80.401 64.5599 80.9527 64.3876 81.462 64.0862C82.5441 63.4833 83.4141 62.6435 84.0294 61.5454C84.857 60.0381 84.9206 58.5093 84.2416 56.9375C83.8809 56.1192 83.3717 55.4087 82.7351 54.8058C80.6132 52.8033 78.1518 52.2434 75.4782 53.3847C73.0593 54.4182 71.4254 56.2915 70.4706 58.7462C69.9189 60.1242 70.025 61.5023 70.6191 62.8588C70.9586 63.6555 71.4467 64.3661 72.0196 65.012C72.8471 65.9164 73.7807 66.6916 74.778 67.4021C75.0963 67.639 75.3934 67.7682 75.7753 67.639C75.8814 67.6174 76.0087 67.6174 76.136 67.6174C77.5789 67.5313 78.9369 67.9189 80.1888 68.6294C81.8439 69.5769 83.2443 70.8042 84.3689 72.3545C84.4326 72.4622 84.4963 72.5483 84.5811 72.656C85.2177 71.2564 85.2601 66.5624 84.6448 64.969L84.3265 65.2274C84.185 65.3278 84.0459 65.4331 83.9068 65.5384C83.6286 65.7489 83.3504 65.9595 83.0534 66.1317C81.9712 66.7561 80.8254 67.0791 79.5735 66.9069C78.2791 66.7346 77.2182 66.0886 76.4331 65.0336C75.9663 64.4307 75.839 63.7201 76.0724 62.9665C76.0812 62.9397 76.0899 62.9093 76.1002 62.8736ZM60.6237 74.7656C60.633 74.7278 60.6382 74.6984 60.6429 74.6717C60.649 74.6376 60.6542 74.6081 60.6661 74.5718C60.9844 73.7105 60.8146 72.9354 60.2417 72.2463C59.0959 70.8683 57.6318 70.2869 55.8706 70.5238C54.5551 70.696 53.4517 71.3204 52.4544 72.1817C52.4014 72.2248 52.3536 72.2679 52.3059 72.3109C52.2581 72.354 52.2104 72.3971 52.1573 72.4401C51.542 71.385 51.542 66.7987 52.1573 64.7316C52.2139 64.8177 52.2705 64.8847 52.3271 64.9517C52.3554 64.9852 52.3837 65.0187 52.412 65.0546C53.5366 66.5834 54.9158 67.8107 56.5496 68.7581C58.035 69.5979 59.6476 69.9855 61.3451 69.7271C61.4512 69.7055 61.5785 69.7486 61.6846 69.8132C62.979 70.6745 64.1672 71.6434 65.1221 72.8708C65.5464 73.4091 65.8859 73.9689 66.1618 74.5933C66.7347 75.9283 66.8196 77.2849 66.3103 78.6199C65.3555 81.0961 63.7004 82.9909 61.2815 84.0244C57.6318 85.5963 53.9609 83.6584 52.4968 80.4286C52.1361 79.6749 52.0088 78.8567 52.0725 78.017C52.1149 77.3925 52.2634 76.8112 52.5393 76.2729C53.1971 74.9379 54.1944 73.9258 55.4887 73.2368C56.0192 72.9569 56.5709 72.8062 57.1862 72.9138L57.229 72.9244C57.305 72.9429 57.391 72.9639 57.4621 73C58.0562 73.2368 58.1198 73.5813 57.6955 74.0335C57.4833 74.2488 57.2499 74.4641 56.9952 74.6364L53.3032 77.4141C52.9849 77.6509 52.9424 77.7155 53.091 78.06C54.0883 80.2348 55.5736 81.8497 57.9501 82.4526C58.8837 82.6894 59.8174 82.6464 60.751 82.3665C61.9392 82.0219 62.9365 81.3329 63.7641 80.3855C64.0823 80.0195 64.337 79.6103 64.5067 79.1366C64.9311 77.9524 64.7401 76.8973 63.9126 75.9714C63.1487 75.1316 62.1939 74.7225 61.0693 74.7441C60.9419 74.7656 60.7934 74.7656 60.6237 74.7656ZM64.5474 85.2734C67.0724 85.8978 69.5126 85.8978 72.0164 85.338C71.9126 85.1905 71.8087 85.0521 71.7078 84.9177L71.7076 84.9174L71.7076 84.9174L71.7076 84.9173L71.7076 84.9173L71.7075 84.9171C71.4993 84.6397 71.3036 84.3791 71.1465 84.0891C70.3826 82.8618 69.937 81.5483 70.1492 80.0841C70.3401 78.7276 70.9767 77.651 72.0377 76.8543C72.6318 76.4237 73.2896 76.2729 74.011 76.5098C74.0731 76.5413 74.1353 76.5498 74.214 76.5605H74.2141C74.2429 76.5644 74.274 76.5686 74.3081 76.5744V75.9499C74.3505 74.7011 74.881 73.6891 75.8783 72.957C76.5573 72.4617 77.3212 72.2895 78.1487 72.4833C78.955 72.6771 79.634 73.1292 80.2069 73.7321C81.7771 75.4116 82.4349 77.3926 81.8195 79.6535C81.2042 81.9144 79.6128 83.357 77.5758 84.326C77.2363 84.4982 77.1726 84.4552 76.918 84.1106C76.5233 83.5736 76.1363 83.0366 75.7504 82.5012L75.7501 82.5008C75.2231 81.7698 74.6984 81.0418 74.1595 80.321C73.9474 80.0411 73.7139 79.7827 73.4593 79.5458C73.1623 79.2659 72.9288 79.309 72.7167 79.675C72.5045 80.0411 72.4408 80.4286 72.5257 80.8162C72.6318 81.2469 72.7591 81.6775 72.9501 82.0436C73.523 83.1632 74.3505 84.0461 75.4327 84.6705C76.8331 85.4887 78.2972 85.6179 79.7613 84.9504C82.7744 83.5939 84.8326 80.0626 83.4958 76.316C82.5622 73.7106 80.6737 71.988 78.2123 70.9114C77.4272 70.5669 76.5997 70.4592 75.751 70.5669C74.6264 70.6961 73.6291 71.1698 72.7379 71.8588C71.4011 72.8708 70.3826 74.1628 69.4914 75.5624C69.4277 75.6485 69.3853 75.7992 69.4065 75.9284C69.5975 77.3495 69.4065 78.7276 68.8336 80.0195C67.9636 82.022 66.6056 83.6369 64.9293 84.9719C64.8232 85.0581 64.7171 85.1442 64.5474 85.2734ZM62.513 60.8773C62.6122 60.8956 62.7037 60.9178 62.7908 60.9389C62.9087 60.9675 63.0185 60.9941 63.1284 61.0065C63.7861 61.0926 64.4015 60.9204 64.9107 60.4897C66.1202 59.4562 66.7568 58.1212 66.6931 56.5063C66.6507 54.999 65.9929 53.7071 65.0805 52.5659C65.0542 52.5338 65.0292 52.5031 65.0042 52.4724L65.0036 52.4717C64.928 52.3788 64.8524 52.2859 64.741 52.1568C67.266 51.5969 69.7062 51.6185 72.2525 52.1998C72.0827 52.329 71.9766 52.4151 71.8917 52.5013C70.2155 53.8363 68.8787 55.4297 67.9875 57.4106C67.4146 58.7025 67.1812 60.0806 67.3721 61.4802C67.3933 61.6955 67.3721 61.8462 67.2448 62.0185C66.5658 63.0521 65.8019 64.0425 64.9107 64.9038C64.2742 65.5067 63.574 66.0235 62.7889 66.4111C61.3884 67.0786 59.9455 67.1862 58.5451 66.5833C56.1898 65.5713 54.365 63.9133 53.3889 61.4802C51.9248 57.8197 53.7708 54.0947 56.9537 52.6089C58.5875 51.8553 60.2002 52.0491 61.6855 53.0611C62.5342 53.6425 63.2132 54.3961 63.7437 55.3005C64.0195 55.7742 64.2105 56.2694 64.2742 56.8292C64.3166 57.2168 64.253 57.5829 64.0408 57.9059C63.8286 58.2073 63.6376 58.2504 63.383 58.0135C63.1071 57.7767 62.8737 57.4967 62.6615 57.2168C62.1226 56.4959 61.5977 55.7677 61.0707 55.0365C60.6848 54.5012 60.2977 53.9642 59.9031 53.4272C59.6485 53.0826 59.5636 53.0396 59.2029 53.2118C57.1446 54.2023 55.5744 55.6665 54.9591 57.992C54.2589 60.6189 55.5957 63.3104 57.5054 64.5378C59.7333 66.002 61.8128 64.4732 62.3645 62.5783C62.4486 62.2882 62.4793 61.9711 62.5096 61.659L62.5096 61.6589L62.5096 61.6589L62.5096 61.6588L62.5096 61.6587C62.5175 61.5771 62.5254 61.4959 62.5342 61.4156C62.5342 61.302 62.5283 61.2063 62.5227 61.116V61.116C62.5177 61.0352 62.513 60.9586 62.513 60.8773ZM72.5273 68.8011C70.9359 67.5953 69.5355 66.2603 68.4745 64.5162C67.2863 66.1742 65.9707 67.5953 64.2732 68.6504C65.8858 69.8562 67.265 71.1912 68.326 72.9353C69.5142 71.2988 70.8298 69.8777 72.5273 68.8011ZM79.828 58.6809C79.1915 59.1762 78.5761 59.6499 77.9396 60.1021C77.6213 60.3389 77.2393 60.5112 76.8362 60.5542C76.5603 60.5758 76.2633 60.5758 76.0087 60.4896C75.5631 60.3389 75.4145 59.8867 75.6055 59.4776C75.6479 59.3915 75.6904 59.3054 75.754 59.2408C76.4542 58.401 77.303 57.8842 78.4064 57.9273C78.9793 57.9273 79.4461 58.1642 79.828 58.6809ZM57.5607 78.3256L57.5598 78.3263C57.3655 78.474 57.1704 78.6223 56.9735 78.7706C57.2493 79.1797 57.61 79.395 58.0344 79.4811C59.1166 79.7395 60.6231 79.0505 61.1536 78.06C61.1642 78.0385 61.1748 78.0116 61.1854 77.9847C61.196 77.9577 61.2066 77.9308 61.2172 77.9093C61.3446 77.6078 61.2809 77.3064 61.0263 77.1126C60.8777 77.0049 60.6868 76.9188 60.517 76.8973C59.9229 76.8112 59.3924 76.9834 58.9256 77.3064C58.4651 77.638 58.015 77.9802 57.5607 78.3256ZM78.2764 80.321C78.1915 80.2349 78.1279 80.1703 78.0642 80.0841L77.8678 79.823C77.5878 79.4511 77.2992 79.0678 77.0245 78.6845C76.7274 78.2754 76.494 77.8017 76.4304 77.285C76.4091 77.0266 76.4304 76.7466 76.494 76.4883C76.6213 76.0576 77.0669 75.9069 77.4701 76.1222C77.8945 76.3591 78.1915 76.7036 78.4461 77.1127C78.8493 77.7802 79.0827 78.5123 78.8917 79.309C78.8281 79.7181 78.6371 80.0626 78.2764 80.321ZM58.5954 57.2385C58.5688 57.2116 58.5423 57.1846 58.5211 57.1523C58.1816 57.3892 57.9906 57.6691 57.8845 58.0352C57.6936 58.7888 57.8633 59.4994 58.224 60.1453C58.4786 60.619 58.7969 61.0281 59.2637 61.2865C59.7093 61.5449 60.1974 61.3296 60.3035 60.8128C60.3459 60.6406 60.3671 60.4468 60.3459 60.253C60.3035 59.7147 60.0913 59.241 59.773 58.8103C59.5927 58.5627 59.407 58.3151 59.2214 58.0675C59.0357 57.8199 58.85 57.5722 58.6696 57.3246C58.6484 57.2923 58.6219 57.2654 58.5954 57.2385Z" fill="url(#paint0_linear)"/>
<path opacity="0.5" d="M68.75 13.75C75.9727 13.75 83.1247 15.1726 89.7976 17.9366C96.4705 20.7006 102.534 24.7519 107.641 29.8591C112.748 34.9664 116.799 41.0295 119.563 47.7024C122.327 54.3753 123.75 61.5273 123.75 68.75" stroke="white" stroke-linecap="round" stroke-dasharray="0.5 5"/>
<path opacity="0.5" d="M68.75 123.75C54.1631 123.75 40.1736 117.955 29.8591 107.641C19.5446 97.3264 13.75 83.3369 13.75 68.75" stroke="white" stroke-linecap="round" stroke-dasharray="0.5 5"/>
<path fill-rule="evenodd" clip-rule="evenodd" d="M68.75 6.25C60.5424 6.25 52.4151 7.86661 44.8323 11.0075C38.483 13.6375 32.6196 17.293 27.4728 21.8198C26.7588 21.156 25.8018 20.75 24.75 20.75C22.5409 20.75 20.75 22.5409 20.75 24.75C20.75 25.8018 21.156 26.7588 21.8198 27.4728C17.293 32.6196 13.6375 38.483 11.0075 44.8323C7.86661 52.4151 6.25 60.5424 6.25 68.75H9.25C9.25 60.9364 10.789 53.1992 13.7792 45.9803C16.7693 38.7615 21.1521 32.2022 26.6771 26.6771C32.2022 21.1521 38.7615 16.7693 45.9803 13.7792C53.1992 10.789 60.9363 9.25 68.75 9.25V6.25Z" fill="#0981F6"/>
<path fill-rule="evenodd" clip-rule="evenodd" d="M16.643 113.599C5.94234 101.168 0 85.2652 0 68.75H1.5C1.5 84.8136 7.24715 100.285 17.6028 112.414C18.6802 111.383 20.1412 110.75 21.75 110.75C25.0637 110.75 27.75 113.436 27.75 116.75C27.75 118.313 27.152 119.737 26.1723 120.805C38.1323 130.588 53.1621 136 68.75 136V137.5C52.7209 137.5 37.2689 131.902 25.0076 121.79C24.0695 122.397 22.9509 122.75 21.75 122.75C18.4363 122.75 15.75 120.064 15.75 116.75C15.75 115.594 16.0768 114.515 16.643 113.599ZM26.25 116.75C26.25 119.235 24.2353 121.25 21.75 121.25C19.2647 121.25 17.25 119.235 17.25 116.75C17.25 114.265 19.2647 112.25 21.75 112.25C24.2353 112.25 26.25 114.265 26.25 116.75Z" fill="url(#paint1_linear)"/>
<path fill-rule="evenodd" clip-rule="evenodd" d="M68.75 0C77.7784 0 86.7183 1.77827 95.0595 5.23328C101.328 7.82993 107.167 11.3355 112.391 15.6271C113.485 14.4712 115.033 13.75 116.75 13.75C120.064 13.75 122.75 16.4363 122.75 19.75C122.75 21.4225 122.066 22.9351 120.962 24.0232C125.67 29.5196 129.489 35.7337 132.267 42.4405C135.722 50.7817 137.5 59.7216 137.5 68.75H136C136 59.9186 134.261 51.1737 130.881 43.0145C128.153 36.4285 124.399 30.3282 119.769 24.9363C118.882 25.4536 117.851 25.75 116.75 25.75C113.436 25.75 110.75 23.0637 110.75 19.75C110.75 18.6935 111.023 17.7008 111.502 16.8386C106.376 12.6167 100.643 9.16967 94.4855 6.6191C86.3263 3.23947 77.5814 1.5 68.75 1.5V0ZM121.25 19.75C121.25 22.2353 119.235 24.25 116.75 24.25C114.265 24.25 112.25 22.2353 112.25 19.75C112.25 17.2647 114.265 15.25 116.75 15.25C119.235 15.25 121.25 17.2647 121.25 19.75Z" fill="url(#paint2_linear)"/>
<path fill-rule="evenodd" clip-rule="evenodd" d="M138.25 68.75C138.25 77.8769 136.452 86.9144 132.96 95.3465C129.467 103.779 124.348 111.44 117.894 117.894C111.44 124.348 103.779 129.467 95.3465 132.96C86.9144 136.452 77.8769 138.25 68.75 138.25V141.25C78.2708 141.25 87.6984 139.375 96.4946 135.731C104.498 132.416 111.835 127.697 118.164 121.802C118.861 122.393 119.764 122.75 120.75 122.75C122.959 122.75 124.75 120.959 124.75 118.75C124.75 117.708 124.351 116.758 123.698 116.046C128.715 110.218 132.78 103.62 135.731 96.4946C139.375 87.6984 141.25 78.2708 141.25 68.75H138.25Z" fill="white"/>
<defs>
<linearGradient id="paint0_linear" x1="33.75" y1="66.25" x2="103.75" y2="66.25" gradientUnits="userSpaceOnUse">
<stop stop-color="#0876E1"/>
<stop offset="1" stop-color="#074EFF"/>
</linearGradient>
<linearGradient id="paint1_linear" x1="-3.72037e-07" y1="69.2518" x2="67.7464" y2="129.973" gradientUnits="userSpaceOnUse">
<stop stop-color="#074EFD"/>
<stop offset="0.822917" stop-color="#0863FA"/>
</linearGradient>
<linearGradient id="paint2_linear" x1="68.75" y1="0.501825" x2="136.496" y2="61.2226" gradientUnits="userSpaceOnUse">
<stop stop-color="#074EFD"/>
<stop offset="0.822917" stop-color="#0863FA"/>
</linearGradient>
</defs>
</svg>
