<svg width="379" height="241" viewBox="0 0 379 241" fill="none" xmlns="http://www.w3.org/2000/svg">
<path opacity="0.25" d="M3 5H72L141.5 75" stroke="white"/>
<circle cx="3" cy="5" r="3" fill="#0981F6"/>
<path opacity="0.25" d="M3 238H72L137.032 172.5" stroke="white"/>
<circle r="3" transform="matrix(1 0 0 -1 3 238)" fill="#0981F6"/>
<path opacity="0.25" d="M375.5 238H306.5L240.5 171.525" stroke="white"/>
<circle cx="375.5" cy="238" r="3" transform="rotate(-180 375.5 238)" fill="#0981F6"/>
<path opacity="0.25" d="M375.5 3H306.5L240.971 69" stroke="white"/>
<circle r="3" transform="matrix(-1 0 0 1 375.5 3)" fill="#0981F6"/>
<path fill-rule="evenodd" clip-rule="evenodd" d="M217 121C217 137.016 204.016 150 188 150C171.984 150 159 137.016 159 121C159 104.984 171.984 92 188 92C204.016 92 217 104.984 217 121ZM223 121C223 140.33 207.33 156 188 156C168.67 156 153 140.33 153 121C153 101.67 168.67 86 188 86C207.33 86 223 101.67 223 121ZM195.35 115.124L195.35 115.123C195.365 115.073 195.382 115.012 195.407 114.937C195.357 114.937 195.31 114.938 195.265 114.939L195.265 114.939C195.139 114.943 195.034 114.947 194.94 114.915C194.861 114.907 194.782 114.899 194.703 114.891C194.38 114.86 194.059 114.829 193.752 114.743C191.821 114.14 190.442 112.03 191.864 109.812C193.264 107.659 196.214 106.324 198.993 107.508C200.818 108.283 202.028 109.704 202.876 111.47C203.11 111.944 203.067 111.987 202.643 112.31C202.233 112.618 201.822 112.924 201.412 113.231L201.412 113.231C200.592 113.843 199.771 114.456 198.951 115.087C198.654 115.303 198.378 115.583 198.144 115.862C197.975 116.078 198.017 116.25 198.208 116.444C198.442 116.681 198.717 116.767 199.036 116.788C199.651 116.81 200.203 116.638 200.712 116.336C201.794 115.733 202.664 114.893 203.279 113.795C204.107 112.288 204.171 110.759 203.492 109.187C203.131 108.369 202.622 107.659 201.985 107.056C199.863 105.053 197.402 104.493 194.728 105.635C192.309 106.668 190.675 108.542 189.721 110.996C189.169 112.374 189.275 113.752 189.869 115.109C190.209 115.906 190.697 116.616 191.27 117.262C192.097 118.166 193.031 118.942 194.028 119.652C194.346 119.889 194.643 120.018 195.025 119.889C195.131 119.867 195.259 119.867 195.386 119.867C196.829 119.781 198.187 120.169 199.439 120.879C201.094 121.827 202.494 123.054 203.619 124.605C203.683 124.712 203.746 124.798 203.831 124.906C204.468 123.506 204.51 118.812 203.895 117.219L203.576 117.477C203.435 117.578 203.296 117.683 203.157 117.788C202.879 117.999 202.6 118.209 202.303 118.382C201.221 119.006 200.075 119.329 198.823 119.157C197.529 118.985 196.468 118.339 195.683 117.284C195.216 116.681 195.089 115.97 195.322 115.216C195.331 115.19 195.34 115.159 195.35 115.124ZM179.874 127.016C179.883 126.978 179.888 126.948 179.893 126.922C179.899 126.888 179.904 126.858 179.916 126.822C180.234 125.961 180.065 125.185 179.492 124.496C178.346 123.118 176.882 122.537 175.121 122.774C173.805 122.946 172.702 123.57 171.704 124.432C171.651 124.475 171.604 124.518 171.556 124.561C171.508 124.604 171.46 124.647 171.407 124.69C170.792 123.635 170.792 119.049 171.407 116.982C171.464 117.068 171.521 117.135 171.577 117.202C171.605 117.235 171.634 117.269 171.662 117.305C172.787 118.833 174.166 120.061 175.8 121.008C177.285 121.848 178.898 122.235 180.595 121.977C180.701 121.956 180.829 121.999 180.935 122.063C182.229 122.924 183.417 123.893 184.372 125.121C184.796 125.659 185.136 126.219 185.412 126.843C185.985 128.178 186.07 129.535 185.56 130.87C184.605 133.346 182.95 135.241 180.531 136.274C176.882 137.846 173.211 135.908 171.747 132.679C171.386 131.925 171.259 131.107 171.322 130.267C171.365 129.643 171.513 129.061 171.789 128.523C172.447 127.188 173.444 126.176 174.739 125.487C175.269 125.207 175.821 125.056 176.436 125.164L176.479 125.174C176.555 125.193 176.641 125.214 176.712 125.25C177.306 125.487 177.37 125.831 176.945 126.284C176.733 126.499 176.5 126.714 176.245 126.886L172.553 129.664C172.235 129.901 172.192 129.966 172.341 130.31C173.338 132.485 174.824 134.1 177.2 134.703C178.134 134.939 179.067 134.896 180.001 134.616C181.189 134.272 182.187 133.583 183.014 132.636C183.332 132.269 183.587 131.86 183.757 131.387C184.181 130.202 183.99 129.147 183.163 128.221C182.399 127.382 181.444 126.973 180.319 126.994C180.192 127.016 180.043 127.016 179.874 127.016ZM183.797 137.523C186.322 138.148 188.763 138.148 191.266 137.588C191.163 137.44 191.059 137.302 190.958 137.168L190.958 137.167L190.958 137.167L190.958 137.167L190.958 137.167L190.957 137.167C190.749 136.89 190.554 136.629 190.396 136.339C189.633 135.112 189.187 133.798 189.399 132.334C189.59 130.978 190.227 129.901 191.288 129.104C191.882 128.674 192.54 128.523 193.261 128.76C193.323 128.791 193.385 128.8 193.464 128.81H193.464C193.493 128.814 193.524 128.819 193.558 128.824V128.2C193.601 126.951 194.131 125.939 195.128 125.207C195.807 124.712 196.571 124.539 197.399 124.733C198.205 124.927 198.884 125.379 199.457 125.982C201.027 127.662 201.685 129.643 201.07 131.903C200.454 134.164 198.863 135.607 196.826 136.576C196.486 136.748 196.423 136.705 196.168 136.361C195.773 135.824 195.386 135.287 195 134.751L195 134.751C194.473 134.02 193.948 133.292 193.41 132.571C193.197 132.291 192.964 132.033 192.709 131.796C192.412 131.516 192.179 131.559 191.967 131.925C191.754 132.291 191.691 132.679 191.776 133.066C191.882 133.497 192.009 133.928 192.2 134.294C192.773 135.413 193.601 136.296 194.683 136.92C196.083 137.739 197.547 137.868 199.011 137.2C202.024 135.844 204.083 132.313 202.746 128.566C201.812 125.961 199.924 124.238 197.462 123.161C196.677 122.817 195.85 122.709 195.001 122.817C193.876 122.946 192.879 123.42 191.988 124.109C190.651 125.121 189.633 126.413 188.741 127.812C188.678 127.898 188.635 128.049 188.657 128.178C188.847 129.6 188.657 130.978 188.084 132.27C187.214 134.272 185.856 135.887 184.179 137.222C184.073 137.308 183.967 137.394 183.797 137.523ZM181.763 113.127C181.862 113.146 181.954 113.168 182.041 113.189C182.159 113.217 182.269 113.244 182.378 113.256C183.036 113.343 183.651 113.17 184.161 112.74C185.37 111.706 186.007 110.371 185.943 108.756C185.901 107.249 185.243 105.957 184.33 104.816C184.304 104.784 184.279 104.753 184.254 104.722L184.254 104.722C184.178 104.629 184.102 104.536 183.991 104.407C186.516 103.847 188.956 103.868 191.502 104.45C191.333 104.579 191.227 104.665 191.142 104.751C189.465 106.086 188.129 107.68 187.237 109.661C186.665 110.953 186.431 112.331 186.622 113.73C186.643 113.946 186.622 114.096 186.495 114.269C185.816 115.302 185.052 116.293 184.161 117.154C183.524 117.757 182.824 118.273 182.039 118.661C180.638 119.329 179.196 119.436 177.795 118.833C175.44 117.821 173.615 116.163 172.639 113.73C171.175 110.07 173.021 106.345 176.204 104.859C177.838 104.105 179.45 104.299 180.935 105.311C181.784 105.892 182.463 106.646 182.994 107.55C183.27 108.024 183.461 108.519 183.524 109.079C183.567 109.467 183.503 109.833 183.291 110.156C183.079 110.457 182.888 110.5 182.633 110.264C182.357 110.027 182.124 109.747 181.912 109.467C181.373 108.746 180.848 108.018 180.321 107.287C179.935 106.751 179.548 106.214 179.153 105.677C178.898 105.333 178.814 105.29 178.453 105.462C176.395 106.452 174.824 107.917 174.209 110.242C173.509 112.869 174.846 115.56 176.755 116.788C178.983 118.252 181.063 116.723 181.614 114.828C181.699 114.538 181.729 114.221 181.76 113.909L181.76 113.909L181.76 113.909L181.76 113.909L181.76 113.909C181.768 113.827 181.775 113.746 181.784 113.666C181.784 113.552 181.778 113.456 181.773 113.366V113.366C181.768 113.285 181.763 113.209 181.763 113.127ZM191.777 121.051C190.186 119.845 188.785 118.51 187.725 116.766C186.536 118.424 185.221 119.845 183.523 120.9C185.136 122.106 186.515 123.441 187.576 125.185C188.764 123.549 190.08 122.128 191.777 121.051ZM199.078 110.931C198.441 111.426 197.826 111.9 197.19 112.352C196.871 112.589 196.489 112.761 196.086 112.804C195.81 112.826 195.513 112.826 195.259 112.74C194.813 112.589 194.665 112.137 194.855 111.728C194.898 111.641 194.94 111.555 195.004 111.491C195.704 110.651 196.553 110.134 197.656 110.177C198.229 110.177 198.696 110.414 199.078 110.931ZM176.811 130.576L176.81 130.576C176.616 130.724 176.42 130.872 176.223 131.021C176.499 131.43 176.86 131.645 177.284 131.731C178.367 131.99 179.873 131.301 180.404 130.31C180.414 130.288 180.425 130.262 180.435 130.235C180.446 130.208 180.457 130.181 180.467 130.159C180.595 129.858 180.531 129.556 180.276 129.363C180.128 129.255 179.937 129.169 179.767 129.147C179.173 129.061 178.642 129.233 178.176 129.556C177.715 129.888 177.265 130.23 176.811 130.576ZM197.526 132.571C197.442 132.485 197.378 132.42 197.314 132.334L197.118 132.073C196.838 131.701 196.549 131.318 196.274 130.935C195.977 130.525 195.744 130.052 195.68 129.535C195.659 129.277 195.68 128.997 195.744 128.738C195.871 128.308 196.317 128.157 196.72 128.372C197.144 128.609 197.442 128.954 197.696 129.363C198.099 130.03 198.333 130.762 198.142 131.559C198.078 131.968 197.887 132.313 197.526 132.571ZM177.845 109.488C177.819 109.462 177.792 109.435 177.771 109.402C177.432 109.639 177.241 109.919 177.135 110.285C176.944 111.039 177.113 111.749 177.474 112.395C177.729 112.869 178.047 113.278 178.514 113.537C178.959 113.795 179.447 113.58 179.553 113.063C179.596 112.891 179.617 112.697 179.596 112.503C179.553 111.965 179.341 111.491 179.023 111.06C178.843 110.813 178.657 110.565 178.471 110.318C178.286 110.07 178.1 109.822 177.92 109.575C177.898 109.542 177.872 109.515 177.845 109.488Z" fill="url(#paint0_linear)"/>
<path opacity="0.5" d="M188 66C195.223 66 202.375 67.4226 209.048 70.1866C215.72 72.9506 221.784 77.0019 226.891 82.1091C231.998 87.2164 236.049 93.2795 238.813 99.9524C241.577 106.625 243 113.777 243 121" stroke="white" stroke-linecap="round" stroke-dasharray="0.5 5"/>
<path opacity="0.5" d="M188 176C173.413 176 159.424 170.205 149.109 159.891C138.795 149.576 133 135.587 133 121" stroke="white" stroke-linecap="round" stroke-dasharray="0.5 5"/>
<path fill-rule="evenodd" clip-rule="evenodd" d="M188 58.5C179.792 58.5 171.665 60.1166 164.082 63.2575C157.733 65.8875 151.87 69.543 146.723 74.0698C146.009 73.406 145.052 73 144 73C141.791 73 140 74.7909 140 77C140 78.0518 140.406 79.0088 141.07 79.7228C136.543 84.8696 132.887 90.733 130.258 97.0823C127.117 104.665 125.5 112.792 125.5 121H128.5C128.5 113.186 130.039 105.449 133.029 98.2303C136.019 91.0115 140.402 84.4522 145.927 78.9271C151.452 73.4021 158.011 69.0193 165.23 66.0292C172.449 63.039 180.186 61.5 188 61.5V58.5Z" fill="#0981F6"/>
<path fill-rule="evenodd" clip-rule="evenodd" d="M135.893 165.849C125.192 153.418 119.25 137.515 119.25 121H120.75C120.75 137.064 126.497 152.535 136.853 164.664C137.93 163.633 139.391 163 141 163C144.314 163 147 165.686 147 169C147 170.563 146.402 171.987 145.422 173.055C157.382 182.838 172.412 188.25 188 188.25V189.75C171.971 189.75 156.519 184.152 144.258 174.04C143.319 174.647 142.201 175 141 175C137.686 175 135 172.314 135 169C135 167.844 135.327 166.765 135.893 165.849ZM145.5 169C145.5 171.485 143.485 173.5 141 173.5C138.515 173.5 136.5 171.485 136.5 169C136.5 166.515 138.515 164.5 141 164.5C143.485 164.5 145.5 166.515 145.5 169Z" fill="url(#paint1_linear)"/>
<path fill-rule="evenodd" clip-rule="evenodd" d="M188 52.25C197.028 52.25 205.968 54.0283 214.309 57.4833C220.578 60.0799 226.417 63.5855 231.641 67.8771C232.735 66.7212 234.283 66 236 66C239.314 66 242 68.6863 242 72C242 73.6725 241.316 75.1851 240.212 76.2732C244.92 81.7696 248.739 87.9837 251.517 94.6905C254.972 103.032 256.75 111.972 256.75 121H255.25C255.25 112.169 253.511 103.424 250.131 95.2645C247.403 88.6785 243.649 82.5782 239.019 77.1863C238.132 77.7036 237.101 78 236 78C232.686 78 230 75.3137 230 72C230 70.9435 230.273 69.9508 230.752 69.0886C225.626 64.8667 219.893 61.4197 213.735 58.8691C205.576 55.4895 196.831 53.75 188 53.75V52.25ZM240.5 72C240.5 74.4853 238.485 76.5 236 76.5C233.515 76.5 231.5 74.4853 231.5 72C231.5 69.5147 233.515 67.5 236 67.5C238.485 67.5 240.5 69.5147 240.5 72Z" fill="url(#paint2_linear)"/>
<path fill-rule="evenodd" clip-rule="evenodd" d="M257.5 121C257.5 130.127 255.702 139.164 252.21 147.596C248.717 156.029 243.598 163.69 237.144 170.144C230.69 176.598 223.029 181.717 214.596 185.21C206.164 188.702 197.127 190.5 188 190.5V193.5C197.521 193.5 206.948 191.625 215.745 187.981C223.748 184.666 231.085 179.947 237.414 174.052C238.111 174.643 239.014 175 240 175C242.209 175 244 173.209 244 171C244 169.958 243.601 169.008 242.948 168.296C247.965 162.468 252.03 155.87 254.981 148.745C258.625 139.948 260.5 130.521 260.5 121H257.5Z" fill="white"/>
<defs>
<linearGradient id="paint0_linear" x1="153" y1="118.5" x2="223" y2="118.5" gradientUnits="userSpaceOnUse">
<stop stop-color="#0876E1"/>
<stop offset="1" stop-color="#074EFF"/>
</linearGradient>
<linearGradient id="paint1_linear" x1="119.25" y1="121.502" x2="186.996" y2="182.223" gradientUnits="userSpaceOnUse">
<stop stop-color="#074EFD"/>
<stop offset="0.822917" stop-color="#0863FA"/>
</linearGradient>
<linearGradient id="paint2_linear" x1="188" y1="52.7518" x2="255.746" y2="113.473" gradientUnits="userSpaceOnUse">
<stop stop-color="#074EFD"/>
<stop offset="0.822917" stop-color="#0863FA"/>
</linearGradient>
</defs>
</svg>
